<?xml version="1.0" encoding="UTF-8" standalone="no"?>
<!-- Created with Inkscape (http://www.inkscape.org/) -->

<svg
   version="1.1"
   id="svg1"
   width="1053"
   height="1280"
   viewBox="0 0 1053 1280"
   sodipodi:docname="bear.svg"
   inkscape:version="1.4 (86a8ad7, 2024-10-11)"
   inkscape:export-filename="bear.png"
   inkscape:export-xdpi="96"
   inkscape:export-ydpi="96"
   xmlns:inkscape="http://www.inkscape.org/namespaces/inkscape"
   xmlns:sodipodi="http://sodipodi.sourceforge.net/DTD/sodipodi-0.dtd"
   xmlns="http://www.w3.org/2000/svg"
   xmlns:svg="http://www.w3.org/2000/svg">
  <defs
     id="defs1" />
  <sodipodi:namedview
     id="namedview1"
     pagecolor="#ffffff"
     bordercolor="#000000"
     borderopacity="0.25"
     inkscape:showpageshadow="2"
     inkscape:pageopacity="0.0"
     inkscape:pagecheckerboard="0"
     inkscape:deskcolor="#d1d1d1"
     inkscape:zoom="0.45254834"
     inkscape:cx="30.935922"
     inkscape:cy="699.3728"
     inkscape:window-width="1920"
     inkscape:window-height="991"
     inkscape:window-x="-9"
     inkscape:window-y="-9"
     inkscape:window-maximized="1"
     inkscape:current-layer="g1" />
  <g
     inkscape:groupmode="layer"
     inkscape:label="Image"
     id="g1">
    <path
       style="fill:#d6759c;fill-opacity:1;stroke-width:18.8976"
       d="m 44.194174,1166.7262 82.864076,-133.6874 40.87961,-172.35726 47.50874,-54.13787 48.61359,-27.62136 59.66213,-407.69125 26.51651,-95.01747 -6.62913,-102.75146 57.45243,-16.57281 78.44466,27.62136 h 113.79999 l 68.50097,-39.77476 53.03301,54.13786 -12.1534,66.29126 39.77476,97.22719 44.19417,417.63494 -19.88737,75.13009 100.54174,99.4369 -34.25048,117.11454 -77.33981,40.8796 -50.8233,17.6777 23.20194,48.6136 -13.25825,65.1864 -70.71068,20.9922 -59.66213,-7.734 -39.77476,-33.1456 -4.41941,-30.9359 -47.50874,-27.6214 14.36311,60.767 -41.98447,32.0408 -122.63883,7.734 -30.93592,-24.3068 16.57281,-77.3398 -38.6699,-4.4194 -39.77476,-38.6699 -4.41942,61.8718 -79.54951,34.2505 -96.122326,-1.1049 z"
       id="path15" />
    <path
       style="fill:#5e3d23;fill-opacity:1;stroke-width:1.00157"
       d="m 62.923674,1175.6792 33.117723,21.5265 92.729623,-13.2471 41.39716,-21.5265 6.62354,-71.2031 61.26779,52.9883 59.6119,-1.6559 132.47089,6.6236 264.94179,-59.6119 69.54722,-43.053 23.1824,-84.45024 L 798.13713,900.80207 526.5718,683.88098 245.07115,813.0401 180.49159,884.24321 137.43855,1058.1113 Z"
       id="path1" />
    <path
       style="fill:#7e4f2e;fill-opacity:1;stroke-width:1.00157"
       d="m 362.63907,193.73868 16.55886,82.79431 -38.08538,102.66494 -59.6119,410.65977 86.10608,316.2743 -33.11773,112.6002 31.46184,26.4942 61.26779,-1.6559 56.30013,-31.4618 -31.46184,-223.54466 80.31048,-202.01812 53.8163,357.67138 -26.49418,34.7736 3.31177,38.0854 71.20311,31.4619 71.2031,-14.903 3.31178,-56.3001 -28.15007,-52.9884 92.72963,-367.60673 -49.67659,-395.75679 -44.70893,-96.04139 13.24709,-69.54722 -41.39715,-28.15007 -46.36481,29.80595 -145.71798,9.93532 -64.57956,-28.15006 z"
       id="path2"
       sodipodi:nodetypes="ccccccccccccccccccccccccccc" />
    <path
       style="fill:#3e2415;fill-opacity:1;stroke-width:1.00157"
       d="m 81.084017,1137.8107 -18.441491,36.883 8.48894,16.6852 12.58705,-1.1709 10.830717,10.538 17.270607,-3.5127 6.43988,4.6836 12.58705,-6.7326 9.07439,4.9762 15.51427,-9.9525 12.0016,7.9035 64.10614,-33.6631 0.58544,-7.6107 z"
       id="path3" />
    <path
       style="fill:#3e2415;fill-opacity:1;stroke-width:1.00157"
       d="m 336.14489,1186.8564 -8.6934,41.3972 19.87063,13.661 6.20958,-1.2419 24.83829,10.7633 12.83312,-4.1398 15.31694,4.5537 16.55886,-4.5537 9.52135,3.3118 12.00517,-8.2794 9.52135,2.4838 32.28978,-31.4618 -5.38163,-32.7038 -77.41268,16.5589 z"
       id="path4" />
    <path
       style="fill:#3e2415;fill-opacity:1;stroke-width:1.00157"
       d="m 493.52943,1102.3914 2.92722,40.9811 32.78488,31.0285 17.56332,2.3418 16.39244,-32.1995 -15.80699,0.5855 15.80699,-25.1741 -22.83232,0.5854 22.24687,-12.8797 -25.1741,-14.0507 25.1741,-7.6108 -25.1741,-20.4905 16.97789,-1.7564 -27.51588,-18.7342 -17.56333,13.4653 z"
       id="path5" />
    <path
       style="fill:#3e2415;fill-opacity:1;stroke-width:1.00157"
       d="m 573.76455,1150.0129 -16.14489,30.6339 4.96766,41.3972 10.34929,6.6235 10.76326,-0.8279 10.76326,12.0052 7.45149,-2.4839 10.34929,10.7633 11.17723,-3.3118 16.14489,9.1074 19.04269,-8.6934 16.97283,5.7956 11.17723,-12.0052 19.0427,-4.9676 1.65588,-31.0479 -150.68564,-21.9405 z"
       id="path6" />
    <path
       style="fill:#aa6b3d;fill-opacity:1;stroke-width:1.00157"
       d="m 355.95005,204.90546 14.63611,70.83874 -12.87977,69.08241 72.00963,-27.51587 78.44952,80.20585 72.00963,69.66785 29.85765,-3.51266 26.93043,-32.19943 42.73743,-39.8102 22.83232,-79.03497 -19.31966,-50.93364 11.12344,-67.32608 -44.49376,-30.44309 -48.00642,31.02854 -144.01926,9.3671 -66.15519,-29.85765 -35.7121,21.07599 z"
       id="path7" />
    <path
       style="fill:#3e2716;fill-opacity:1;stroke-width:1.00157"
       d="m 543.29219,271.06065 1.17088,39.8102 -33.37031,32.78488 -29.85766,-45.07921 29.27221,-30.44309 z"
       id="path8" />
    <path
       style="fill:#3e2716;fill-opacity:1;stroke-width:1.00157"
       d="m 605.34927,296.23475 25.1741,48.59186 21.66143,-31.61398 -23.41777,-42.73743 z"
       id="path9" />
    <path
       style="fill:#5e4a3b;fill-opacity:1;stroke-width:1.00157"
       d="m 526.89975,381.7096 5.269,-53.86087 29.85765,-24.58865 34.54121,1.17089 28.68676,31.02854 12.87977,63.22797 -3.51266,36.29754 -22.24688,30.44309 -35.12665,2.92722 -49.17731,-48.00642 z"
       id="path12" />
    <path
       style="fill:#3e2716;fill-opacity:1;stroke-width:1.00157"
       d="m 575.49162,354.19372 43.90831,5.269 11.12344,19.31966 -24.00321,-5.85445 -6.43989,15.22155 28.68676,2.34178 -32.19942,22.24688 -27.51588,-2.34178 -12.29433,-28.68676 26.93043,8.19621 6.43989,-12.87977 -26.93043,-1.75633 z"
       id="path10" />
    <path
       style="fill:#3e2716;fill-opacity:1;stroke-width:1.62506"
       d="m 626.76578,417.26715 -32.71132,17.37436 -42.52074,-10.84642 z"
       id="path11" />
    <path
       style="fill:#debca3;fill-opacity:1;stroke-width:1.00157"
       d="m 501.14021,295.35658 38.34659,-4.68355 -17.85605,21.07599 -15.80699,1.75633 z"
       id="path13" />
    <path
       style="fill:#debca3;fill-opacity:1;stroke-width:1.00157"
       d="m 622.32715,297.69836 18.44149,2.6345 -3.51266,9.3671 -9.95256,-0.29272 z"
       id="path14" />
    <path
       style="fill:#1c130d;fill-opacity:1;stroke:none;stroke-width:10;stroke-dasharray:none;stroke-opacity:1"
       d="m 506.83594,298.24219 14.45312,-1.95313 -1.36718,10.15625 -11.32813,2.53907 z"
       id="path17" />
    <path
       style="fill:#1c130d;fill-opacity:1;stroke:none;stroke-width:10;stroke-dasharray:none;stroke-opacity:1"
       d="m 627.34375,301.5625 7.61719,0.39063 1.17188,5.85937 h -7.03125 z"
       id="path18" />
  </g>
</svg>
