<?xml version="1.0" encoding="UTF-8" standalone="no"?>
<!-- Created with Inkscape (http://www.inkscape.org/) -->

<svg
   version="1.1"
   id="svg1"
   width="1275"
   height="1280"
   viewBox="0 0 1275 1280"
   sodipodi:docname="boar.svg"
   inkscape:version="1.4 (86a8ad7, 2024-10-11)"
   inkscape:export-filename="boar.png"
   inkscape:export-xdpi="96"
   inkscape:export-ydpi="96"
   xmlns:inkscape="http://www.inkscape.org/namespaces/inkscape"
   xmlns:sodipodi="http://sodipodi.sourceforge.net/DTD/sodipodi-0.dtd"
   xmlns="http://www.w3.org/2000/svg"
   xmlns:svg="http://www.w3.org/2000/svg">
  <defs
     id="defs1" />
  <sodipodi:namedview
     id="namedview1"
     pagecolor="#ffffff"
     bordercolor="#000000"
     borderopacity="0.25"
     inkscape:showpageshadow="2"
     inkscape:pageopacity="0.0"
     inkscape:pagecheckerboard="0"
     inkscape:deskcolor="#d1d1d1"
     inkscape:zoom="0.2135131"
     inkscape:cx="-749.36854"
     inkscape:cy="756.39387"
     inkscape:window-width="1920"
     inkscape:window-height="991"
     inkscape:window-x="-9"
     inkscape:window-y="-9"
     inkscape:window-maximized="1"
     inkscape:current-layer="g1" />
  <g
     inkscape:groupmode="layer"
     inkscape:label="Image"
     id="g1">
    <path
       style="fill:#d6759c;fill-opacity:1;stroke-width:18.3431"
       d="m 79.875263,170.84999 -34.210617,261.65787 35.350971,600.34054 103.772203,63.4323 92.36867,-7.9291 -62.71946,-142.72246 15.96495,-113.2718 35.35097,-26.05252 17.10531,202.75658 62.71947,-10.19451 67.28088,32.84881 86.6669,-38.51239 39.91239,31.71609 42.19309,134.7935 -15.96496,71.3612 79.82478,39.6452 77.54406,9.0617 49.03522,-21.5217 -78.68441,-161.9786 15.96494,-137.05894 42.1931,90.61744 12.54389,147.2533 123.15823,55.5032 61.57911,-6.7963 -41.05274,-109.8737 -35.35097,-58.9012 5.70177,-105.34284 312.91919,-13.67173 43.543,-51.26097 -54.8319,-179.41338 8.0635,-132.95814 -33.8668,-30.4362 41.9303,-94.51241 49.9938,-49.65906 24.1906,-150.57909 -27.416,-54.46478 -109.6638,-1.60191 -38.7049,67.28002 -38.705,-54.46478 L 652.39909,52.933469 387.91563,28.904892 Z"
       id="path20" />
    <path
       style="fill:#2f2a25;fill-opacity:1;stroke-width:9.70656"
       d="m 287.92797,551.12599 19.35246,437.32012 16.12704,-1.60191 4.83811,-41.64953 37.09219,36.84382 48.38111,-22.42667 -35.47948,-40.04764 -3.22541,-320.38104 z"
       id="path1" />
    <path
       style="fill:#2f2a25;fill-opacity:1;stroke-width:9.70656"
       d="m 718.51993,876.31275 12.90164,67.28002 45.15571,86.50293 8.06351,160.1905 9.67623,-3.2038 16.12704,-27.2325 19.35244,51.261 77.4098,-32.038 -58.05734,-92.9105 16.12703,-168.20012 z"
       id="path2" />
    <path
       style="fill:#61532f;fill-opacity:1;stroke-width:9.70656"
       d="M 83.114575,422.97358 89.565391,648.8422 231.48334,623.21173 512.09383,852.28417 897.53007,941.99086 734.64697,736.94699 829.7965,504.67074 939.46037,424.57548 1053.9623,496.66121 1152.3373,437.39072 1050.737,253.17162 660.46259,76.962047 384.69021,51.331564 110.53054,189.09542 Z"
       id="path3" />
    <path
       style="fill:#433a1f;fill-opacity:1;stroke-width:9.70656"
       d="m 220.19441,1012.4747 -64.50816,24.0286 -8.06351,-44.85338 -17.73975,38.44578 -17.73974,-9.6115 L 105.69243,820.24606 84.727279,584.766 155.68625,517.48598 294.3788,557.53361 310.50583,672.87079 199.22926,831.45941 184.71493,951.60229 Z"
       id="path4" />
    <path
       style="fill:#433a1f;fill-opacity:1;stroke-width:9.70656"
       d="m 633.04662,1220.7224 82.2479,-22.4267 -41.9303,-88.1048 29.02868,-280.3334 -83.86061,-59.2705 -79.0225,9.61144 -72.57167,150.57909 90.31142,75.28957 41.9303,128.1524 z"
       id="path5" />
    <path
       style="fill:#433a1f;fill-opacity:1;stroke-width:9.70656"
       d="m 607.24336,1135.8213 -11.28893,89.7068 19.35245,9.6114 19.35245,-59.2705 z"
       id="path6" />
    <path
       style="fill:#686256;fill-opacity:1;stroke-width:9.70656"
       d="m 632.94879,1220.0227 37.19002,40.7473 51.60653,8.0095 -1.61271,-12.8152 h 33.86679 l -43.543,-64.0762 z"
       id="path7"
       sodipodi:nodetypes="ccccccc" />
    <path
       style="fill:#686256;fill-opacity:1;stroke-width:9.70656"
       d="m 826.5711,1209.509 77.40979,-33.64 29.02867,59.2705 -38.7049,3.2039 z"
       id="path8" />
    <path
       style="fill:#686256;fill-opacity:1;stroke-width:9.70656"
       d="m 363.72506,980.71144 41.9303,26.95756 41.93031,-12.81527 -37.09219,-35.24191 z"
       id="path9"
       sodipodi:nodetypes="ccccc" />
    <path
       style="fill:#686256;fill-opacity:1;stroke-width:9.70656"
       d="m 155.68625,1031.6975 58.05735,-22.4267 38.70489,57.6686 -58.05734,1.6019 z"
       id="path10" />
    <path
       style="fill:#433a1f;fill-opacity:1;stroke-width:9.70656"
       d="m 942.68578,392.53738 3.22541,-73.68764 -148.36876,-70.48384 -51.60653,91.30861 20.96515,102.52193 75.79709,48.05715 z"
       id="path11" />
    <path
       style="fill:#433a1f;fill-opacity:1;stroke-width:9.70656"
       d="m 1087.8291,323.65545 64.5082,-83.29907 83.8606,3.20381 12.9017,41.64954 -20.9653,121.74479 -69.3462,59.27049 -46.7684,-62.4743 z"
       id="path12" />
    <path
       style="fill:#615a45;fill-opacity:1;stroke-width:9.70656"
       d="m 881.40303,943.59277 196.74987,-9.61143 106.4385,-96.11432 -4.8381,-57.66858 -22.5778,-59.2705 3.2253,-113.73527 -41.9303,-43.25144 38.705,-54.46477 6.4507,-56.06669 -32.254,-19.22286 -77.4099,54.46478 -114.50193,-68.88193 -108.05116,76.89145 -108.05116,245.0915 z"
       id="path13" />
    <path
       style="fill:#9a9072;fill-opacity:1;stroke-width:9.70656"
       d="m 1020.0955,682.48221 -22.57779,104.12384 27.41599,60.87241 56.4446,44.85334 -8.0635,24.02858 30.6414,20.82476 69.3462,-6.40761 32.2541,-41.64954 -6.4508,-32.03811 -17.7398,-6.40762 -3.2253,-60.87239 -59.6701,-134.56004 -14.5143,-81.69717 20.9651,-27.23239 -4.8381,-22.42667 -25.8032,22.42667 -67.7336,20.82477 -64.50817,-51.26097 -69.34627,9.61144 -4.83812,24.02857 37.0922,48.05716 59.67004,4.80572 z"
       id="path14" />
    <path
       style="fill:#28251c;fill-opacity:1;stroke-width:9.70656"
       d="m 968.48904,567.14504 -6.45081,-20.82477 -27.41597,-8.00952 -6.45081,6.40762 3.2254,19.22286 z"
       id="path15" />
    <path
       style="fill:#28251c;fill-opacity:1;stroke-width:9.70656"
       d="m 1120.0832,536.70884 -16.127,8.00953 3.2254,14.41715 17.7397,-6.40763 z"
       id="path16" />
    <path
       style="fill:#615a45;fill-opacity:1;stroke-width:9.70656"
       d="m 1087.8291,882.72037 -22.5779,33.64001 30.6415,25.63048 77.4097,-3.20381 38.705,-46.45525 -6.4509,-28.83429 -19.3524,-16.01905 -61.2828,1.6019 z"
       id="path17" />
    <path
       style="fill:#3f392c;fill-opacity:1;stroke-width:9.70656"
       d="m 1174.9152,874.71084 8.0634,30.4362 -20.9651,19.22286 -6.4508,-25.63048 z"
       id="path18" />
    <path
       style="fill:#3f392c;fill-opacity:1;stroke-width:9.70656"
       d="m 1126.534,879.51656 -16.127,28.83429 16.127,17.62096 11.2889,-24.02858 z"
       id="path19" />
  </g>
</svg>
