<?xml version="1.0" encoding="UTF-8" standalone="no"?>
<!-- Created with Inkscape (http://www.inkscape.org/) -->

<svg
   version="1.1"
   id="svg1"
   width="1920"
   height="1280"
   viewBox="0 0 1920 1280"
   sodipodi:docname="bohumil.svg"
   inkscape:version="1.4 (86a8ad7, 2024-10-11)"
   xmlns:inkscape="http://www.inkscape.org/namespaces/inkscape"
   xmlns:sodipodi="http://sodipodi.sourceforge.net/DTD/sodipodi-0.dtd"
   xmlns="http://www.w3.org/2000/svg"
   xmlns:svg="http://www.w3.org/2000/svg">
  <defs
     id="defs1" />
  <sodipodi:namedview
     id="namedview1"
     pagecolor="#ffffff"
     bordercolor="#000000"
     borderopacity="0.25"
     inkscape:showpageshadow="2"
     inkscape:pageopacity="0.0"
     inkscape:pagecheckerboard="0"
     inkscape:deskcolor="#d1d1d1"
     inkscape:zoom="0.4270262"
     inkscape:cx="819.62183"
     inkscape:cy="656.86835"
     inkscape:window-width="1920"
     inkscape:window-height="991"
     inkscape:window-x="-9"
     inkscape:window-y="-9"
     inkscape:window-maximized="1"
     inkscape:current-layer="g1" />
  <g
     inkscape:groupmode="layer"
     inkscape:label="Image"
     id="g1">
    <path
       style="fill:#d6759c;fill-opacity:1;stroke-width:8"
       d="m 1071.3583,422.25097 -57.956,18.21475 -74.51485,105.97671 -29.80595,94.38551 -31.46184,26.49418 11.59121,69.54722 49.67658,6.62354 -23.1824,44.70893 -112.60026,71.20311 -13.24709,72.85899 104.32083,183.80339 3.31177,36.4295 -31.46184,36.4295 29.80595,28.15 96.0414,1.6559 11.59119,45.5369 87.762,38.9133 30.6339,-28.1501 -14.0751,-35.6015 37.2575,-25.6662 102.6649,4.9676 14.0751,-35.6015 40.5692,2.4838 8.2794,-38.0854 -38.0854,4.1397 -18.2147,-62.0957 23.1824,-150.68565 48.0207,-31.46184 13.2471,-44.70892 -24.8383,-38.08538 15.7309,-13.24709 -4.9677,-58.78396 h 28.1501 l 34.7736,-38.91333 -1.6559,-67.89133 -14.075,-33.94566 4.1397,-34.77361 -38.9133,-64.57956 -26.4942,-66.23545 -43.053,-33.11772 -24.0104,-0.82795 -36.4295,-14.90297 2.4838,-57.12807 7.4515,-13.24709 -47.1927,-81.13843 -74.5149,-24.01034 -22.3545,17.3868 -32.2897,54.64424 -4.1398,72.03105 z"
       id="path76" />
    <path
       style="fill:#191008;stroke-width:8;fill-opacity:1"
       d="m 1018.6728,1073.7046 33.9558,51.5191 -56.20263,39.8102 -30.4431,36.2975 -70.2533,3.5127 -18.73421,-17.5633 50.3482,-39.8102 z"
       id="path1" />
    <path
       style="fill:#8f643d;fill-opacity:1;stroke-width:8"
       d="m 1029.2108,1063.1666 -18.7342,37.4684 -36.29751,43.3229 -51.51908,3.5127 -10.538,-39.8102 -78.44952,-153.38641 28.10132,-62.05708 83.13307,33.95576 z"
       id="path2" />
    <path
       style="fill:#243927;fill-opacity:1;stroke-width:8"
       d="m 999.93863,912.12201 71.42417,254.08279 224.8106,8.1962 3.5126,-15.2216 -36.2975,2.3418 -59.7153,-244.71564 -26.9304,3.51267 74.9368,241.20297 -160.4117,-4.6835 -74.9368,-249.39924 z"
       id="path3" />
    <path
       style="fill:#35553a;fill-opacity:1;stroke-width:8"
       d="m 1051.4577,922.66001 -43.3228,255.25369 201.3927,10.538 39.8102,-266.96258 17.5634,10.53799 -32.7849,251.74099 15.2215,5.8544 -5.8544,18.7343 -271.64608,-7.0254 2.34177,-12.8797 h 16.39244 l 39.81017,-273.98791 z"
       id="path4" />
    <path
       style="fill:#1c2e1f;fill-opacity:1;stroke-width:8"
       d="m 981.20442,922.66001 296.23478,5.85444 23.4177,-21.07599 8.1963,-26.93043 -318.48167,-7.02533 -19.9051,28.10132 z"
       id="path5" />
    <path
       style="fill:#312010;fill-opacity:1;stroke-width:8"
       d="m 1005.7931,1208.3568 7.0253,42.1519 81.9622,35.1267 10.538,-10.538 -11.7089,-48.0064 -23.4178,-38.6393 -35.1266,-5.8545 z"
       id="path6" />
    <path
       style="fill:#a8754e;fill-opacity:1;stroke-width:8"
       d="m 956.61577,944.90688 -88.98752,-39.8102 -32.78487,51.51909 -26.93043,-37.46843 10.53799,-52.68997 115.91795,-74.93686 58.54442,-12.87977 247.05739,-4.68355 v 76.10774 l -60.8862,35.12665 -97.1837,-9.36711 z"
       id="path8" />
    <path
       style="fill:#cbab90;fill-opacity:1;stroke-width:8"
       d="m 1009.3057,1202.5023 35.1267,-9.3671 29.2722,10.538 12.8798,29.2722 32.7848,-14.0506 58.5445,-67.9116 90.1584,-235.34852 45.6646,-15.22155 11.7089,-32.78488 -36.2975,-73.76596 -55.0318,-17.56333 -60.8862,32.78488 -30.4431,53.86086 -81.9622,240.0321 -37.4684,23.4178 -14.0507,46.8355 z"
       id="path7" />
    <path
       style="fill:#4e5da8;fill-opacity:1;stroke-width:8"
       d="m 1035.0653,446.10845 -76.10776,84.30396 -30.44309,111.2344 -36.29754,26.93043 7.02533,51.51908 64.39886,18.73422 -35.12665,57.37353 155.72815,-36.29754 233.0068,48.00642 -5.8545,-78.44952 37.4685,7.02533 28.1013,-26.93043 -2.3418,-59.71531 -72.5951,-196.70924 -98.3546,-48.00642 z"
       id="path9" />
    <path
       style="fill:#0d0d0d;fill-opacity:1;stroke-width:8"
       d="m 1052.6286,538.60863 -64.39885,17.56333 1.17089,241.20299 60.88616,-14.05066 58.5444,-2.34177 48.0065,9.3671 62.0571,16.39244 33.9557,2.34178 114.7471,-231.83589 -32.7849,-46.83554 -64.3989,-25.75954 -165.0952,-9.36711 -53.8609,8.19622 z"
       id="path10" />
    <path
       style="fill:#7d7367;fill-opacity:1;stroke-width:8"
       d="m 1266.9012,506.4092 -80.2059,-14.6361 -80.2058,2.92722 0.5854,262.27899 49.1773,9.95255 z"
       id="path11" />
    <path
       style="fill:#f2d7bc;fill-opacity:1;stroke-width:8"
       d="m 1195.477,728.29254 80.7913,-183.82947 45.0792,18.14877 -85.4749,183.24403 z"
       id="path12" />
    <path
       style="fill:#f2d7bc;fill-opacity:1;stroke-width:8"
       d="m 1047.3596,546.80485 -1.1709,-0.58544 -53.27539,17.56332 -3.51267,224.22512 61.47166,-23.41777 z"
       id="path13"
       sodipodi:nodetypes="cccccc" />
    <path
       style="fill:#2e2b25;fill-opacity:0.99000001;stroke-width:8"
       d="m 1046.1887,554.70835 -29.5649,9.07438 0.8782,8.78166 29.2722,-11.12343 z"
       id="path14" />
    <path
       style="fill:#2e2b25;fill-opacity:0.280142;stroke-width:8"
       d="m 1046.4814,568.46629 -30.443,8.48894"
       id="path15" />
    <path
       style="fill:#2e2b25;fill-opacity:1;stroke-width:8"
       d="m 1016.0384,584.85872 1.4636,-7.02533 28.9794,-9.95255 0.8782,6.73261 z"
       id="path16" />
    <path
       style="fill:#2e2b25;fill-opacity:1;stroke-width:8"
       d="m 1017.502,600.95844 -0.8782,7.61077 31.3213,-9.65983 -1.4637,-8.19622 z"
       id="path17" />
    <path
       style="fill:#2e2b25;fill-opacity:1;stroke-width:8"
       d="m 1017.7947,616.47271 -0.5855,5.56172 29.8577,-8.48894 -1.4636,-7.61078 z"
       id="path18" />
    <path
       style="fill:#2d2a24;fill-opacity:1;stroke-width:8"
       d="m 1016.0384,639.59775 -0.2928,6.14717 31.0286,-8.78167 -0.5855,-7.31805 z"
       id="path19" />
    <path
       style="fill:#2e2b25;fill-opacity:1;stroke-width:8"
       d="m 1017.2092,652.47752 1.1709,6.43989 27.5159,-7.9035 -0.8782,-7.90349 z"
       id="path20" />
    <path
       style="fill:#2e2b25;fill-opacity:1;stroke-width:8"
       d="m 1015.7456,666.52818 -0.2927,6.14717 30.1504,-8.78167 -0.2927,-7.31805 z"
       id="path21" />
    <path
       style="fill:#2e2b25;fill-opacity:1;stroke-width:8"
       d="m 1014.5747,688.77506 v 6.73261 l 30.7359,-8.48894 0.2927,-7.02533 z"
       id="path22" />
    <path
       style="fill:#2e2b25;fill-opacity:1;stroke-width:8"
       d="m 1015.4529,703.41117 0.2927,7.61077 29.8577,-8.19622 -0.5855,-7.31805 z"
       id="path23" />
    <path
       style="fill:#2e2b25;fill-opacity:1;stroke-width:8"
       d="m 1014.8675,727.41438 0.2927,6.43988 30.4431,-7.31805 v -6.73261 z"
       id="path24" />
    <path
       style="fill:#2e2b25;fill-opacity:1;stroke-width:8"
       d="m 1013.6966,741.75776 0.5854,7.02533 30.7358,-8.48894 -0.2927,-6.73261 z"
       id="path25" />
    <path
       style="fill:#2e2b25;fill-opacity:1;stroke-width:8"
       d="m 1013.6966,755.22297 0.5854,6.73261 31.0286,-8.19622 -1.1709,-7.02533 z"
       id="path26" />
    <path
       style="fill:#2e2b25;fill-opacity:1;stroke-width:8"
       d="m 1293.5389,580.76061 -1.4636,4.09811 3.5126,1.17089 4.0981,-3.21994 z"
       id="path27" />
    <path
       style="fill:#2e2b25;fill-opacity:1;stroke-width:8"
       d="m 1275.9756,585.15144 -3.8054,4.09811 1.7563,2.34178 h 4.0981 z"
       id="path28" />
    <path
       style="fill:#2e2b25;fill-opacity:1;stroke-width:8"
       d="m 1285.3427,583.10239 -2.9273,4.39083 2.0491,2.34178 4.0981,-0.87817 z"
       id="path29" />
    <path
       style="fill:#2e2b25;fill-opacity:1;stroke-width:8"
       d="m 1266.9012,587.78594 -3.8054,3.80539 2.6345,4.09811 3.8054,-1.75633 z"
       id="path30" />
    <path
       style="fill:#2e2b25;fill-opacity:1;stroke-width:8"
       d="m 1272.1702,598.03122 -3.22,2.04905 0.2928,3.80539 7.318,-1.46361 z"
       id="path31" />
    <path
       style="fill:#2e2b25;fill-opacity:1;stroke-width:8"
       d="m 1264.8521,601.25116 -4.6835,-1.75633 v 5.56172 l 4.0981,0.87816 z"
       id="path32" />
    <path
       style="fill:#2e2b25;fill-opacity:1;stroke-width:8"
       d="m 1267.1939,607.98377 -3.5127,2.34177 4.0981,2.92722 3.5127,-1.46361 z"
       id="path33" />
    <path
       style="fill:#2e2b25;fill-opacity:1;stroke-width:8"
       d="m 1257.5341,611.20371 -3.22,1.75633 1.1709,3.80539 5.5617,0.58544 z"
       id="path34" />
    <path
       style="fill:#2e2b25;fill-opacity:1;stroke-width:8"
       d="m 1266.3157,644.28131 -3.2199,2.63449 2.9272,3.80539 5.269,-1.17089 z"
       id="path35" />
    <path
       style="fill:#2e2b25;fill-opacity:1;stroke-width:8"
       d="m 1254.8996,640.1832 -3.5127,0.58544 -0.8782,4.09811 7.6108,0.58544 z"
       id="path36" />
    <path
       style="fill:#2e2b25;fill-opacity:1;stroke-width:8"
       d="m 1247.5815,630.23065 -2.6345,2.92722 3.8054,4.39083 5.8544,-2.34178 z"
       id="path37" />
    <path
       style="fill:#2e2b25;fill-opacity:1;stroke-width:8"
       d="m 1239.3853,652.77025 -3.8054,2.34177 2.0491,3.80539 4.6835,-1.75633 z"
       id="path38" />
    <path
       style="fill:#2e2b25;fill-opacity:1;stroke-width:8"
       d="m 1252.2651,659.50285 -2.9272,2.6345 2.3417,2.6345 3.5127,-1.17089 z"
       id="path39" />
    <path
       style="fill:#2e2b25;fill-opacity:1;stroke-width:8"
       d="m 1257.8268,667.99179 -3.22,1.75634 2.0491,3.21994 3.2199,-1.17089 z"
       id="path40" />
    <path
       style="fill:#2e2b25;fill-opacity:1;stroke-width:8"
       d="m 1247.8742,670.04085 -2.6345,2.04905 2.0491,3.80539 3.5127,-1.75633 z"
       id="path41" />
    <path
       style="fill:#2e2b25;fill-opacity:1;stroke-width:8"
       d="m 1242.3125,660.96646 -2.9272,4.09811 3.5127,1.75634 4.0981,-2.6345 z"
       id="path42" />
    <path
       style="fill:#2e2b25;fill-opacity:1;stroke-width:8"
       d="m 1233.5309,665.65002 -2.0491,2.6345 3.8054,1.75633 2.3418,-3.21994 z"
       id="path43" />
    <path
       style="fill:#2e2b25;fill-opacity:1;stroke-width:8"
       d="m 1239.0926,672.67535 -4.0981,2.34177 2.049,2.6345 3.8054,-1.46361 z"
       id="path44" />
    <path
       style="fill:#2e2b25;fill-opacity:1;stroke-width:8"
       d="m 1251.9723,677.94434 -2.3417,4.97628 3.5126,2.04905 3.5127,-3.21994 z"
       id="path45" />
    <path
       style="fill:#2e2b25;fill-opacity:1;stroke-width:8"
       d="m 1245.5325,684.38423 -3.8054,-3.51266 -2.6345,4.0981 3.5126,2.34178 z"
       id="path46" />
    <path
       style="fill:#2e2b25;fill-opacity:1;stroke-width:8"
       d="m 1250.9185,691.33247 v 0 l -3.6222,-2.06986 -2.4839,4.03623 5.6921,2.17335 z"
       id="path47" />
    <path
       style="fill:#2e2b25;fill-opacity:1;stroke-width:8"
       d="m 1245.5369,701.78525 -1.2419,-1.3454 -2.8978,-0.31048 -1.9664,4.65718 5.3816,1.55239 z"
       id="path48" />
    <path
       style="fill:#2e2b25;fill-opacity:1;stroke-width:8"
       d="m 1241.1902,695.98965 v 0 l -1.9664,-5.17464 -3.7257,2.48383 3.7257,3.51876 z"
       id="path49" />
    <path
       style="fill:#2e2b25;fill-opacity:1;stroke-width:8"
       d="m 1236.0155,686.5718 v 0 l -2.1733,-4.65718 -3.2083,4.3467 3.8292,3.20828 z"
       id="path50" />
    <path
       style="fill:#2e2b25;fill-opacity:1;stroke-width:8"
       d="m 1231.5653,677.8784 v 0 l -1.1384,-3.72575 -4.5537,2.27685 2.4839,4.96766 z"
       id="path51" />
    <path
       style="fill:#2e2b25;fill-opacity:1;stroke-width:8"
       d="m 1225.4593,692.47089 1.2419,-1.55239 0.9314,-1.86287 -3.6222,-3.00129 -2.4839,3.20827 z"
       id="path52" />
    <path
       style="fill:#2e2b25;fill-opacity:1;stroke-width:8"
       d="m 1230.2199,694.64424 v 0 l -4.9676,2.89781 3.8292,3.00129 2.4838,-1.55239 z"
       id="path53" />
    <path
       style="fill:#2e2b25;fill-opacity:1;stroke-width:8"
       d="m 1233.8422,702.6132 -3.6223,1.86287 1.2419,3.82924 3.8293,-0.20699 -0.7245,-4.86417 z"
       id="path54" />
    <path
       style="fill:#2e2b25;fill-opacity:1;stroke-width:8"
       d="m 1224.3208,705.09703 v 0 l -3.3117,2.7943 2.6908,3.62225 3.2083,-2.58732 z"
       id="path55" />
    <path
       style="fill:#2e2b25;fill-opacity:1;stroke-width:8"
       d="m 1218.6287,702.92368 4.1397,-2.89781 -3.8292,-3.41526 -2.6908,4.03622 z"
       id="path56" />
    <path
       style="fill:#2e2b25;fill-opacity:1;stroke-width:8"
       d="m 1216.2484,713.99741 1.2419,-4.55368 -3.6223,-1.96637 -2.1733,3.51876 2.6908,2.69082 z"
       id="path57" />
    <path
       style="fill:#cba191;fill-opacity:1;stroke-width:8"
       d="m 961.88476,655.11202 46.83554,7.02533 2.3418,5.85444 -5.269,4.68356 -31.61401,-4.09811 z"
       id="path58" />
    <path
       style="fill:#dab2a2;fill-opacity:1;stroke-width:8"
       d="m 909.19479,653.94113 9.36711,-5.85444 30.44309,-4.09811 25.75955,22.24688 31.61396,6.43989 6.4399,8.78166 -7.0253,4.09811 -43.90834,-10.538 8.78167,9.95255 32.19947,11.70889 2.3417,7.02533 -40.98106,0.58544 34.54121,9.36711 2.34175,5.85444 -7.02531,6.43989 -33.95576,-6.43989 -20.49054,-14.05066 19.9051,18.14877 18.14877,5.269 1.17089,8.19621 -6.43989,3.51267 -27.51588,-10.53799 -26.34498,-26.93044 -18.14877,-13.46521 z"
       id="path59" />
    <path
       style="fill:#dab2a2;fill-opacity:1;stroke-width:8"
       d="m 1354.9289,641.65589 -52.5744,-42.2251 -28.1501,-2.8978 -4.5537,8.6934 4.5537,4.96766 11.1772,1.24191 26.0802,14.90298 -30.2199,-12.41915 -16.9728,-2.06985 -5.3816,5.7956 1.6558,7.86546 19.4567,4.13971 13.6611,11.59121 -32.2898,-12.00518 -10.3493,-10.76326 -10.3493,-2.8978 -1.6559,6.20957 9.5214,12.00518 35.6015,21.52652 -19.4566,-4.55369 -25.2523,-12.41915 -5.7956,3.72575 1.6559,6.62354 26.9081,19.87064 16.5589,1.24191 7.0375,5.38163 38.0854,13.66106 18.6287,-9.52134 10.3493,-17.38681 z"
       id="path60" />
    <path
       style="fill:#594034;fill-opacity:0.99000001;stroke-width:8"
       d="m 1349.9612,545.61449 12.0052,16.97283 8.2794,98.52523 -8.6934,26.90815 -100.1811,113.84217 -14.903,-9.10737 91.0737,-104.32083 16.1449,-24.83829 z"
       id="path61" />
    <path
       style="fill:#2c201a;fill-opacity:1;stroke-width:8"
       d="m 1152.9107,490.97025 84.0363,-65.40751 24.0103,-2.06985 19.0427,19.04269 -21.9405,-9.10738 -82.7943,63.75162 -12.4191,7.45149 -17.3868,-6.62355 z"
       id="path62" />
    <path
       style="fill:#2d201a;fill-opacity:0.99000001;stroke-width:8"
       d="m 1065.1488,517.46442 -72.03108,-27.32212 -15.73091,18.62872 78.24059,27.7361 10.7633,-4.96766 z"
       id="path63" />
    <path
       style="fill:#d9b1a2;fill-opacity:1;stroke-width:8"
       d="m 1087.0893,461.99224 20.6985,12.00517 46.7788,-7.03751 33.1177,-29.39198 10.7633,-35.18758 0.414,-63.33765 -19.8707,-22.76843 -80.7244,9.93531 -33.9457,33.94567 18.2148,25.66624 z"
       id="path64" />
    <path
       style="fill:#cb937f;fill-opacity:1;stroke-width:8"
       d="m 1088.3312,405.69211 0.4139,-26.08021 -20.2846,-22.76843 -10.7632,3.31177 -1.2419,17.80078 14.489,23.59637 z"
       id="path65" />
    <path
       style="fill:#d2a18f;fill-opacity:1;stroke-width:8"
       d="m 1146.7012,414.79948 16.1449,-4.55368 21.5265,0.82794 -10.7633,9.52134 -18.6287,-2.06985 z"
       id="path66" />
    <path
       style="fill:#a9a2a1;fill-opacity:1;stroke-width:8"
       d="m 1154.5666,396.58474 -17.3868,9.93531 -6.8305,19.04269 h 9.3143 l 7.8655,-11.17723 32.7038,-4.13971 9.1073,10.76326 2.0699,-10.97025 -9.9353,-13.86805 z"
       id="path67"
       sodipodi:nodetypes="cccccccccc" />
    <path
       style="fill:#a9a2a1;fill-opacity:1;stroke-width:8"
       d="m 1130.9703,424.7348 -2.4839,12.83312 17.3868,13.24709 29.392,-2.06986 18.2147,-16.55886 -1.8628,-22.35447 -8.0725,-0.82794 2.8978,16.14489 -16.9728,10.76326 h -14.075 l -16.5589,-10.76326 4.5537,-7.86546 z"
       id="path68"
       sodipodi:nodetypes="ccccccccccccc" />
    <path
       style="fill:#a9a2a1;fill-opacity:1;stroke-width:8"
       d="m 1080.8797,347.32212 13.2471,22.76844 -7.0375,8.27943 -19.8707,-21.94049 z"
       id="path69" />
    <path
       style="fill:#0c0a0a;fill-opacity:1;stroke-width:8"
       d="m 1049.4179,358.91333 2.8978,14.489 40.1552,-30.63389 50.0906,-16.97284 36.0155,-3.31177 15.3169,12.41915 4.1397,11.17723 9.5214,-14.48901 -4.1397,-16.14489 -8.2795,-9.10737 -3.7257,-11.5912 -3.3118,-4.13972 -17.8008,-32.28978 -27.3221,-15.73092 -45.1229,-8.27943 -10.3493,4.96766 -14.489,33.53169 -20.2846,20.69858 2.4839,28.97801"
       id="path70" />
    <path
       style="fill:#d2a390;fill-opacity:1;stroke-width:8"
       d="m 1157.4644,377.95602 -7.8654,8.27943 3.7257,8.27943 22.3545,0.82794 2.8978,-5.7956 -7.4515,-8.6934 -9.5214,-25.66624 -12.0051,-6.20957 -8.6934,0.41397 13.2471,12.00517 z"
       id="path71" />
    <path
       style="fill:#b6b8b6;stroke-width:8;fill-opacity:1"
       d="m 1147.9431,360.36223 -9.5214,-3.93273 -12.8331,6.83053 z"
       id="path72" />
    <path
       style="fill:#b6b8b6;fill-opacity:1;stroke-width:8"
       d="m 1173.6093,355.60155 4.3467,-6.20957 10.7633,2.27684 2.4838,3.51876 z"
       id="path73" />
    <path
       style="fill:#1c1c1c;fill-opacity:1;stroke-width:8"
       d="m 1138.1035,360.56043 -3.4395,-2.19542 -3.7322,1.97587 v 3.21995 l 5.6349,0.14636"
       id="path74" />
    <path
       style="fill:#1c1c1c;fill-opacity:1;stroke-width:8"
       d="m 1185.6708,353.24237 -1.6832,-3.0004 -3.0004,-0.0732 -1.6099,2.12224 1.0977,3.43948 4.7567,-0.21954 z"
       id="path75" />
  </g>
</svg>
