<?xml version="1.0" encoding="UTF-8" standalone="no"?>
<!-- Created with Inkscape (http://www.inkscape.org/) -->

<svg
   version="1.1"
   id="svg1"
   width="905"
   height="1280"
   viewBox="0 0 905 1280"
   sodipodi:docname="bunny.svg"
   inkscape:version="1.4 (86a8ad7, 2024-10-11)"
   inkscape:export-filename="bunny.png"
   inkscape:export-xdpi="96"
   inkscape:export-ydpi="96"
   xmlns:inkscape="http://www.inkscape.org/namespaces/inkscape"
   xmlns:sodipodi="http://sodipodi.sourceforge.net/DTD/sodipodi-0.dtd"
   xmlns="http://www.w3.org/2000/svg"
   xmlns:svg="http://www.w3.org/2000/svg">
  <defs
     id="defs1" />
  <sodipodi:namedview
     id="namedview1"
     pagecolor="#ffffff"
     bordercolor="#000000"
     borderopacity="0.25"
     inkscape:showpageshadow="2"
     inkscape:pageopacity="0.0"
     inkscape:pagecheckerboard="0"
     inkscape:deskcolor="#d1d1d1"
     inkscape:zoom="0.85405241"
     inkscape:cx="457.81734"
     inkscape:cy="746.44131"
     inkscape:window-width="1920"
     inkscape:window-height="991"
     inkscape:window-x="-9"
     inkscape:window-y="-9"
     inkscape:window-maximized="1"
     inkscape:current-layer="g1" />
  <g
     inkscape:groupmode="layer"
     inkscape:label="Image"
     id="g1">
    <path
       style="fill-opacity:1;stroke:none;stroke-width:18.8976;fill:#d6759c"
       d="M 285.69675,601.8366 251.74099,512.84909 166.26614,416.83625 46.835533,366.48805 0,394.58937 l 3.512665,62.05708 79.620407,151.04459 92.500178,39.81021 25.75954,46.83553 -7.02533,33.95576 18.73422,45.66465 -17.56333,72.59507 92.50018,169.77884 85.47485,23.4177 -38.63932,146.3611 -42.15198,7.0253 -15.22155,38.6393 32.78488,31.614 91.32929,-15.2215 18.73421,22.2468 244.71566,-1.1708 59.71531,-38.6394 43.32287,26.9305 87.81662,10.538 39.8102,-44.4938 7.02533,-51.5191 -14.05066,-35.1266 5.85445,-126.456 L 843.0396,881.67891 696.67856,750.53942 515.19087,708.38744 386.39315,721.26721 398.10203,604.17838 456.64645,529.24153 466.01356,357.12094 444.93757,285.69675 H 402.78559 L 290.38031,435.57046 270.4752,523.38708 Z"
       id="path21" />
    <path
       style="fill:#303029;fill-opacity:1;stroke:none;stroke-width:10"
       d="m 498.42173,1097.8525 v 102.665 h -69.54722 l 3.31178,-155.6533 28.15006,-19.8707 43.05304,46.3648 z"
       id="path6" />
    <path
       style="fill:#4d4d45;fill-opacity:1;stroke:none;stroke-width:10"
       d="m 389.13325,736.86934 127.50323,-11.5912 175.52393,44.70892 132.4709,120.87969 56.30013,129.15915 -4.96766,120.8797 -96.0414,94.3855 -205.32988,-124.1915 52.98835,-71.2031 -26.49417,-74.51487 -71.20311,-39.74127 29.80595,-44.70892 -162.27684,-34.77362 z"
       id="path1"
       sodipodi:nodetypes="cccccccccccccc" />
    <path
       style="fill:#a0a08e;fill-opacity:1;stroke:none;stroke-width:10"
       d="m 216.92109,818.00776 182.14747,-11.5912 24.8383,39.74127 147.37386,23.1824 -21.52652,51.33247 64.57956,43.05304 28.15007,67.89136 -44.70893,69.5472 -26.49418,44.7089 -89.41785,-64.5795 -31.46184,-44.709 -142.4062,-29.8059 -38.08539,-66.23546 -54.64424,-92.72963 z"
       id="path2" />
    <path
       style="fill:#4f4f42;fill-opacity:1;stroke:none;stroke-width:10"
       d="m 485.17464,1097.8525 -97.69728,137.4386 -57.95601,11.5912 -34.77361,-14.903 8.27943,-26.4942 43.05304,-8.2794 28.15006,-69.5472 21.52652,-114.2562 62.92368,14.903 z"
       id="path5" />
    <path
       style="fill:#3b3b2d;fill-opacity:1;stroke:none;stroke-width:10"
       d="m 870.99612,1132.6261 -66.23545,16.5589 -36.42949,54.6442 4.96766,39.7413 76.17076,6.6235 33.11772,-36.4294 9.93532,-38.0854 z"
       id="path3" />
    <path
       style="fill:#3b3b2d;fill-opacity:1;stroke:none;stroke-width:10"
       d="m 567.96895,1104.4761 18.21475,76.1707 -105.97671,-8.2794 -64.57956,4.9677 -19.87064,41.3971 31.46184,33.1177 233.47995,-1.6559 76.17076,-49.6765 -39.74127,-29.806 -49.67658,-112.6002 -67.89133,-14.903 z"
       id="path4" />
    <path
       style="fill:#3f3f23;fill-opacity:0.629433;stroke:none;stroke-width:10"
       d="M 1218.7322,486.83053 Z"
       id="path7" />
    <path
       style="fill:#878771;fill-opacity:1;stroke:none;stroke-width:10"
       d="m 266.59767,622.6132 34.77361,-8.27944 67.89133,18.21475 -3.31177,77.82665 31.46184,36.4295 8.27943,69.54722 -62.92368,52.98835 -56.30012,8.27943 -38.08539,-39.74126 -33.11772,-16.55887 18.21475,-44.70892 -18.21475,-51.33247 9.93532,-48.0207 z"
       id="path8" />
    <path
       style="fill:#515143;fill-opacity:1;stroke:none;stroke-width:10"
       d="M 273.22122,627.58085 235.13583,524.91591 155.6533,432.18629 52.988357,380.85382 l -39.741268,16.55886 3.311773,52.98835 87.761968,144.0621 77.82665,34.77361 38.08538,64.57956 z"
       id="path9" />
    <path
       style="fill:#515143;fill-opacity:1;stroke:none;stroke-width:10"
       d="m 372.57439,642.48383 14.90297,-54.64424 51.33247,-64.57956 16.55886,-160.62096 -14.90297,-61.26779 -29.80595,-1.65589 -105.97672,144.0621 -14.90297,89.41785 16.55886,87.76197 z"
       id="path10" />
    <path
       style="fill:#eb9e9e;fill-opacity:1;stroke:none;stroke-width:10"
       d="m 362.63907,620.95731 8.27943,-69.54722 61.26779,-145.71798 -23.18241,-64.57956 -48.0207,59.6119 -23.1824,130.81501 z"
       id="path11" />
    <path
       style="fill:#eb9e9e;fill-opacity:1;stroke:none;stroke-width:10"
       d="M 220.23286,637.51617 183.80336,510.01294 117.56792,433.84217 52.988357,412.31565 97.697283,528.22768 Z"
       id="path12" />
    <path
       style="fill:#eb9e9e;fill-opacity:0.629433;stroke:none;stroke-width:10"
       d="m 354.35964,707.06339 -4.96766,41.39715"
       id="path13" />
    <path
       style="fill:#c5932a;fill-opacity:1;stroke:none;stroke-width:10"
       d="m 365.95084,741.837 -16.97283,5.7956 1.65588,-30.21992 12.83312,-11.17723 4.13972,12.00517 z"
       id="path14" />
    <path
       style="fill:#c5932a;fill-opacity:1;stroke:none;stroke-width:10"
       d="m 233.47995,730.65977 15.31695,11.17723 3.31177,21.94049 -19.04269,-3.31177 -7.86546,-21.94049 z"
       id="path15" />
    <path
       style="fill:#0f0a02;fill-opacity:1;stroke:none;stroke-width:10"
       d="m 355.60155,716.58474 9.10738,3.72574 0.82794,12.00517 -4.96766,2.48383 z"
       id="path16" />
    <path
       style="fill:#0f0a02;fill-opacity:1;stroke:none;stroke-width:10"
       d="m 240.10349,738.11126 1.24192,13.66106 h -5.7956 l -5.38163,-9.10738 3.31177,-9.52134 z"
       id="path17" />
    <path
       style="fill:#24241e;fill-opacity:1;stroke:none;stroke-width:10"
       d="m 294.74774,813.0401 -10.76326,13.24709 10.76326,16.55886 13.24709,3.31178 4.13971,15.73092 -5.7956,3.31177 -16.55886,2.48383 -4.13972,0.82794 h 31.46184 l 32.28978,-19.04269 -28.97801,7.45149 V 843.674 l 11.5912,-14.90298 -1.65588,-14.90297 -10.76326,-4.96766 z"
       id="path18" />
    <path
       style="fill:#000000;fill-opacity:0;stroke-width:18.8976;stroke:none"
       d="m 283.15653,1246.0543 42.2251,21.5266 68.71928,-14.903 32.28978,17.3868 249.21086,-1.6559 56.30013,-34.7736 36.4295,26.4942 89.41785,4.1397 41.39715,-42.2251 4.13972,-62.9237 -12.41915,-23.1824 5.7956,-125.8473 L 839.53428,879.27555 710.37516,755.91203 530.71151,709.54722 389.13325,716.99871 399.89651,599.43079 454.54075,529.88357 471.09961,356.01552 451.22898,286.46831 402.38034,281.50065 292.26391,427.21863 275.70505,560.51746 165.09525,414.49447 42.15198,361.80449 0,388.4422 l 3.8053871,74.64414 75.6771489,144.62388 84.450194,38.08538 34.77361,44.70893 12.41915,82.79431 -24.01035,81.13842 99.35317,174.69594 74.51487,12.4192 -24.83829,135.7827 -47.19276,14.075 z"
       id="path19" />
  </g>
</svg>
