<?xml version="1.0" encoding="UTF-8" standalone="no"?>
<!-- Created with Inkscape (http://www.inkscape.org/) -->

<svg
   version="1.1"
   id="svg1"
   width="1920"
   height="1832"
   viewBox="0 0 1920 1832"
   sodipodi:docname="cat family.svg"
   inkscape:version="1.4 (86a8ad7, 2024-10-11)"
   inkscape:export-filename="cat family.png"
   inkscape:export-xdpi="96"
   inkscape:export-ydpi="96"
   xmlns:inkscape="http://www.inkscape.org/namespaces/inkscape"
   xmlns:sodipodi="http://sodipodi.sourceforge.net/DTD/sodipodi-0.dtd"
   xmlns="http://www.w3.org/2000/svg"
   xmlns:svg="http://www.w3.org/2000/svg">
  <defs
     id="defs1" />
  <sodipodi:namedview
     id="namedview1"
     pagecolor="#ffffff"
     bordercolor="#000000"
     borderopacity="0.25"
     inkscape:showpageshadow="2"
     inkscape:pageopacity="0.0"
     inkscape:pagecheckerboard="0"
     inkscape:deskcolor="#d1d1d1"
     showgrid="false"
     inkscape:zoom="0.21097162"
     inkscape:cx="511.91721"
     inkscape:cy="1329.5627"
     inkscape:window-width="1920"
     inkscape:window-height="991"
     inkscape:window-x="-9"
     inkscape:window-y="-9"
     inkscape:window-maximized="1"
     inkscape:current-layer="g1" />
  <g
     inkscape:groupmode="layer"
     inkscape:label="Image"
     id="g1">
    <path
       style="fill:#d6759c;fill-opacity:1;stroke-width:18.8976"
       d="m 1190.9185,1247.7982 119.6843,1.185 62.8047,183.674 30.8098,161.1591 93.6145,49.7697 161.1591,-16.5899 66.3597,-66.3596 -113.7594,-174.1941 -47.3997,-342.4631 45.0297,-462.14748 -114.9444,-118.49935 -69.9146,13.03493 -170.639,-68.72962 -164.7141,46.21474 -79.3946,-2.36998 45.0297,-126.79431 -66.35959,-123.23933 -86.50453,42.65977 -370.90298,56.87969 -264.25355,-22.51488 131.53428,303.35834 45.02975,242.92368 37.91979,48.58473 -26.06985,200.26387 -210.92885,212.1139 -10.66494,60.4347 40.28978,37.9197 127.9793,23.6999 117.31436,-101.9094 59.24967,312.8383 -46.21474,87.6895 123.23932,36.7348 151.67918,-35.5498 31.99482,-52.1397 120.86934,16.5899 49.76974,-31.9948 104.8151,10.6653 134.0667,-38.5442 -1.6759,-112.2808 z"
       id="path24" />
    <path
       style="fill:#e7e7db;fill-opacity:1;stroke:none;stroke-width:8"
       d="m 1130.4838,855.56533 -173.00903,63.98965 63.98963,206.18892 194.339,99.5394 118.4993,-21.3299 73.4696,215.6689 7.11,156.4191 101.9094,40.2898 101.9095,-9.48 63.9896,-49.7697 -97.1695,-158.7891 -61.6196,-343.6482 18.9599,-213.29879 z"
       id="path12" />
    <path
       style="fill:#dcdccb;fill-opacity:1;stroke:none;stroke-width:8"
       d="m 1061.7542,1485.9819 -61.6197,49.7697 -9.47991,71.0996 85.31951,16.5899 135.0893,-26.0698 7.11,-82.9496 -71.0997,-343.6481 -219.22376,-342.46312 1.18499,195.52392 z"
       id="path13"
       sodipodi:nodetypes="cccccccccc" />
    <path
       style="fill:#f3f3ed;stroke:none;stroke-width:8;fill-opacity:1"
       d="m 519.02717,827.12549 -23.69987,253.58861 -229.88875,222.7788 130.34929,66.3596 127.9793,-104.2794 343.64813,16.5899 -47.39975,-289.13842 z"
       id="path1" />
    <path
       style="fill:#ddddd4;fill-opacity:1;stroke:none;stroke-width:8"
       d="m 606.71669,1623.4411 -42.65977,73.4696 94.79948,18.9599 139.82924,-33.1798 23.69987,-59.2497 -49.76973,-35.5498 -45.02975,-348.3881 59.24968,-80.5795 68.72962,173.009 -40.28978,229.8888 21.32988,61.6196 99.53946,21.3299 61.61966,-47.3997 -21.32988,-191.969 21.32988,-168.2691 -66.35963,-220.4087 21.32988,-284.3985 -120.86934,90.05951 -111.38939,106.64942 -92.4295,-37.91979 -116.12936,-68.72963 -18.9599,251.21859 z"
       id="path2" />
    <path
       style="fill:#e9e9e5;fill-opacity:1;stroke:none;stroke-width:8"
       d="M 293.8784,303.35834 433.70763,594.86675 478.73739,815.27555 718.10608,955.10479 959.84476,722.84605 947.99483,554.57697 1021.4644,329.4282 974.06468,234.62872 917.18499,260.69858 526.13713,327.05821 Z"
       id="path3"
       sodipodi:nodetypes="ccccccccccc" />
    <path
       style="fill:#46463b;fill-opacity:1;stroke:none;stroke-width:8"
       d="m 630.41656,817.64554 87.68952,-14.21993 -33.17982,49.76973 z"
       id="path4" />
    <path
       style="fill:#46463b;fill-opacity:1;stroke:none;stroke-width:8"
       d="m 678.32203,865.5274 0.97551,7.81283 -32.88357,13.03493 4.14748,5.92497 85.91203,-7.99871 -3.25873,-7.9987 -44.14101,-4.73998 -0.2752,-24.59478 -5.74526,-6.44303 -5.23698,6.5113 z"
       id="path5"
       sodipodi:nodetypes="ccccccccccc" />
    <path
       style="fill:#70a0b8;fill-opacity:1;stroke:none;stroke-width:8"
       d="m 742.99094,686.11126 9.47995,-29.62484 29.62484,-18.9599 61.61967,5.92497 -18.9599,49.76973 -37.91979,13.03493 z"
       id="path6" />
    <path
       style="fill:#70a0b8;fill-opacity:1;stroke:none;stroke-width:8"
       d="m 599.60673,701.51617 -15.40492,-36.7348 -39.10479,-8.29495 -30.80983,14.21992 11.84994,30.80983 37.91979,15.40492 z"
       id="path7" />
    <path
       style="fill:#414141;fill-opacity:1;stroke:none;stroke-width:8"
       d="m 786.83571,661.22639 -7.10997,16.58991 13.03493,11.84994 5.92497,-14.21993 z"
       id="path8" />
    <path
       style="fill:#414141;fill-opacity:1;stroke:none;stroke-width:8"
       d="m 559.31695,670.70634 -10.66494,17.7749 5.92496,13.03493 15.40492,-18.9599 z"
       id="path9" />
    <path
       style="fill:#c98e8e;fill-opacity:1;stroke:none;stroke-width:8"
       d="m 852.99947,397.17264 67.03335,-110.60504 46.92335,-26.81334 20.11001,46.92335 -23.46167,135.74255 z"
       id="path10" />
    <path
       style="fill:#c98e8e;fill-opacity:1;stroke:none;stroke-width:8"
       d="m 479.2885,410.57931 -20.11,-11.73084 -129.03922,-62.00585 98.8742,150.82505 z"
       id="path11" />
    <path
       style="fill:#f5f5ef;fill-opacity:1;stroke:none;stroke-width:8"
       d="m 1097.6712,1106.0504 102.2259,10.055 88.8192,-55.3025 134.0667,-40.22 127.3634,-206.12761 21.7858,-227.91342 -93.8467,-93.8467 -50.275,10.05501 -170.9351,-63.68169 -155.8525,38.54418 -201.10008,-8.37917 -36.86835,26.81334 75.41253,175.96256 5.0275,224.56175 28.48918,80.44003 z"
       id="path14" />
    <path
       style="fill:#c98e8e;fill-opacity:1;stroke:none;stroke-width:8"
       d="m 1364.1288,688.76774 124.0117,102.22587 5.0275,-90.49503 40.22,-77.08836 -78.7642,-51.95085 -100.55,100.55003 z"
       id="path15" />
    <path
       style="fill:#c98e8e;fill-opacity:1;stroke:none;stroke-width:8"
       d="m 1033.9895,591.56938 v 0 l -122.33585,-90.49504 -10.055,23.46168 58.65419,150.82505 z"
       id="path16" />
    <path
       style="fill:#46463b;fill-opacity:1;stroke:none;stroke-width:8"
       d="m 1075.0475,1049.072 30.165,13.4067 54.4646,-3.3517 -40.22,30.1651 -22.6238,-5.8655 z"
       id="path17" />
    <path
       style="fill:#46463b;fill-opacity:1;stroke:none;stroke-width:8"
       d="m 1109.4021,1086.7783 -1.6759,13.4067 -14.2446,3.3516 51.9509,0.838 -27.6513,-4.1896 -0.8379,-20.11 z"
       id="path18" />
    <path
       style="fill:#5f95af;fill-opacity:1;stroke:none;stroke-width:8"
       d="m 1202.4108,933.4395 24.2996,-33.51668 63.6817,1.67583 31.0029,16.75834 -35.1925,41.89585 -54.4646,-3.35167 z"
       id="path19" />
    <path
       style="fill:#5f95af;fill-opacity:1;stroke:none;stroke-width:8"
       d="m 1070.02,921.70866 -10.055,-31.84085 -37.7063,-11.73083 -27.65127,10.055 12.56877,30.16501 30.165,8.37917 z"
       id="path20" />
    <path
       style="fill:#414141;fill-opacity:1;stroke:none;stroke-width:8"
       d="m 1250.1721,922.54658 -8.3792,14.24458 10.055,12.56876 10.055,-17.59626 z"
       id="path21" />
    <path
       style="fill:#414141;fill-opacity:1;stroke:none;stroke-width:8"
       d="m 1031.4758,907.46407 v 13.40667 l 13.4067,-10.89292 -6.7034,-16.75834 z"
       id="path22" />
    <path
       style="fill:#f3f3ed;fill-opacity:1;stroke:none;stroke-width:8"
       d="m 311.6533,1274.4605 -52.13972,30.8099 -1.77749,23.1074 36.14231,36.7347 99.53945,18.3674 17.18241,-27.2548 z"
       id="path23" />
  </g>
</svg>
