<?xml version="1.0" encoding="UTF-8" standalone="no"?>
<!-- Created with Inkscape (http://www.inkscape.org/) -->

<svg
   version="1.1"
   id="svg1"
   width="1680"
   height="1920"
   viewBox="0 0 1680 1920"
   sodipodi:docname="cat.svg"
   inkscape:version="1.4 (86a8ad7, 2024-10-11)"
   inkscape:export-filename="cat.png"
   inkscape:export-xdpi="96"
   inkscape:export-ydpi="96"
   xmlns:inkscape="http://www.inkscape.org/namespaces/inkscape"
   xmlns:sodipodi="http://sodipodi.sourceforge.net/DTD/sodipodi-0.dtd"
   xmlns="http://www.w3.org/2000/svg"
   xmlns:svg="http://www.w3.org/2000/svg">
  <defs
     id="defs1" />
  <sodipodi:namedview
     id="namedview1"
     pagecolor="#ffffff"
     bordercolor="#000000"
     borderopacity="0.25"
     inkscape:showpageshadow="2"
     inkscape:pageopacity="0.0"
     inkscape:pagecheckerboard="0"
     inkscape:deskcolor="#d1d1d1"
     showgrid="false"
     inkscape:zoom="0.22627417"
     inkscape:cx="238.64854"
     inkscape:cy="704.89707"
     inkscape:window-width="1920"
     inkscape:window-height="991"
     inkscape:window-x="-9"
     inkscape:window-y="-9"
     inkscape:window-maximized="1"
     inkscape:current-layer="g1" />
  <g
     inkscape:groupmode="layer"
     inkscape:label="Image"
     id="g1">
    <path
       style="fill:#d6759c;fill-opacity:1;stroke-width:18.8976"
       d="M 487.5,193.75 292.1875,3.125 243.75,-21.875 201.5625,29.6875 V 743.75 l 18.75,25 -129.6875,-6.25 9.375,79.6875 78.125,65.625 -23.4375,443.75 -68.75,90.625 112.5,243.75 L 471.875,1850 604.6875,1832.8125 700,1910.9375 H 898.4375 L 1042.1875,1721.875 1556.25,1468.75 1686.0077,1241.8563 1630.765,934.70678 1336.8738,718.15533 1062.8699,671.75144 1146.8388,209.92233 1056.2408,13.258252 768.97863,234.22912 Z"
       id="path6" />
    <path
       style="fill:#957453;fill-opacity:1;stroke-width:1.00157"
       d="m 973.66106,789.8577 126.67534,-72.03105 226.0284,39.74127 275.7051,223.54463 54.6442,248.38295 -129.1591,191.2548 -295.5757,161.4489 -514.15265,24.8383 z"
       id="path1"
       sodipodi:nodetypes="ccccccccc" />
    <path
       style="fill:#957453;fill-opacity:0.260638;stroke-width:1.00157"
       d="m 1010.9185,737.69728 89.4179,340.28462"
       id="path2" />
    <path
       style="fill:#e3d8ce;fill-opacity:1;stroke-width:1.00157"
       d="m 1008.4347,762.53558 99.3531,280.67272 -188.77098,414.7995 -258.31824,223.5446 -305.511,-72.0311 -176.35187,-250.8667 27.32212,-439.63778 67.06339,-146.54593 z"
       id="path3" />
    <path
       style="fill:#cdb9a7;fill-opacity:1;stroke-width:1.00157"
       d="m 638.34411,1616.9728 v 168.9004 l 69.54722,86.934 156.48124,-2.4838 153.99743,-178.8357 218.577,-94.3855 -9.9354,-72.031 -188.771,-101.837 -275.70502,72.031 z"
       id="path4" />
    <path
       style="fill:#cdb9a7;fill-opacity:1;stroke-width:1.00157"
       d="m 352.70375,1731.229 126.67529,76.9987 141.57827,-27.3221 12.41915,-158.9651 -111.77232,-141.5783 -260.80207,-57.128 -67.06339,-72.0311 -62.09573,79.4825 104.32083,211.1255 z"
       id="path5" />
    <path
       style="fill:#c6996d;fill-opacity:1;stroke-width:1.00157"
       d="M 247.64288,15.806992 477.72244,244.13022 771.02997,273.98787 1052.0432,66.740635 1095.9515,205.4909 997.59686,792.10596 630.52337,1052.0432 498.79843,1046.7742 231.83589,716.58366 Z"
       id="path15" />
    <path
       style="fill:#d6b394;fill-opacity:1;stroke-width:1.00157"
       d="m 473.4375,831.25 4.6875,-290.625 -75,-68.75 -176.5625,73.4375 -3.125,-475 21.875,-60.9375 48.4375,25 176.5625,192.1875 300,40.625 275,-209.375 L 1068.75,75 l 35.9375,137.5 -62.5,395.3125 L 812.5,417.1875 675,550 576.5625,837.5 Z"
       id="path17"
       sodipodi:nodetypes="ccccccccccccccccc" />
    <path
       style="fill:#f7c685;fill-opacity:0.99000001;stroke-width:1.00157"
       d="m 755.70505,691.74644 53.40232,-38.49935 6.20958,-47.19276 -101.837,-18.62871 -45.95084,55.2652 20.49159,40.36222 z"
       id="path11" />
    <path
       style="fill:#fdb79d;fill-opacity:1;stroke-width:1.00157"
       d="M 427.21863,280.6727 283.15653,414.79948 253.35058,59.611902 357.67141,134.12678 Z"
       id="path8" />
    <path
       style="fill:#fdb79d;fill-opacity:1;stroke-width:1.00157"
       d="M 819.66365,337.80078 1003.467,484.3467 1077.9819,248.38292 1043.2083,111.77232 Z"
       id="path7" />
    <path
       style="fill:#f9b3a1;fill-opacity:1;stroke-width:1.00157"
       d="m 466.30628,826.35444 47.42098,-12.29433 70.2533,25.46682 -45.66465,14.05066 -18.44149,50.05548 -29.85765,-53.56814 z"
       id="path10" />
    <path
       style="fill:#f7c685;fill-opacity:1;stroke-width:1.00157"
       d="m 394.30789,661.94049 45.95084,-4.96766 29.80595,-37.87839 -29.18499,-54.64425 -80.72445,-1.86287 -15.52393,49.67659 z"
       id="path12" />
    <path
       style="fill:#3a2204;fill-opacity:1;stroke-width:1.00157"
       d="m 418.52523,637.1022 22.35446,-25.45925 -15.52393,-44.08797 -38.49936,29.18499 z"
       id="path13" />
    <path
       style="fill:#3a2204;fill-opacity:1;stroke-width:1.00157"
       d="m 740.80207,598.60285 31.04787,26.0802 -20.4916,42.2251 -39.74126,-29.80595 z"
       id="path14" />
    <path
       style="fill:#604326;fill-opacity:1;stroke-width:1.00157"
       d="m 515.625,903.125 -22.65625,27.34375 -52.34375,10.15625 -55.46875,-54.6875 -12.5,13.28125 50,60.9375 89.0625,-9.375 10.9375,-21.09375 40.625,32.8125 114.84375,3.90625 62.5,-49.21875 -17.1875,-3.90625 L 668.75,953.125 561.71875,946.09375 525.78125,903.125 Z"
       id="path16" />
    <path
       style="fill:#efe3d5;fill-opacity:1;stroke-width:1.00157"
       d="m 642.1875,889.0625 329.6875,-9.375 -4.6875,10.9375 -321.875,14.0625 z"
       id="path20" />
    <path
       style="fill:#efe3d5;fill-opacity:1;stroke-width:1.00157"
       d="m 590.625,890.625 190.625,78.125 -9.375,10.9375 -175,-68.75 z"
       id="path22" />
    <path
       style="fill:#efe3d5;fill-opacity:1;stroke-width:1.00157"
       d="m 460.9375,896.875 -168.75,53.125 21.875,12.5 146.875,-45.3125 z"
       id="path23" />
    <path
       style="fill:#efe3d5;fill-opacity:1;stroke-width:1.00157"
       d="m 443.75,896.875 -221.875,-42.1875 9.375,18.75 203.125,37.5 z"
       id="path21" />
    <path
       style="fill:#efe3d5;fill-opacity:1;stroke-width:1.00157"
       d="m 621.875,850 426.5625,-84.375 v 14.0625 l -418.75,93.75 z"
       id="path18" />
    <path
       style="fill:#efe3d5;fill-opacity:1;stroke-width:1.00157"
       d="M 476.5625,867.1875 109.375,790.625 120.3125,800 l 346.875,82.8125 z"
       id="path19" />
  </g>
</svg>
