<?xml version="1.0" encoding="UTF-8" standalone="no"?>
<!-- Created with Inkscape (http://www.inkscape.org/) -->

<svg
   version="1.1"
   id="svg1"
   width="803"
   height="534"
   viewBox="0 0 803 534"
   sodipodi:docname="cow.svg"
   inkscape:version="1.4 (86a8ad7, 2024-10-11)"
   inkscape:export-filename="cow.png"
   inkscape:export-xdpi="96"
   inkscape:export-ydpi="96"
   xmlns:inkscape="http://www.inkscape.org/namespaces/inkscape"
   xmlns:sodipodi="http://sodipodi.sourceforge.net/DTD/sodipodi-0.dtd"
   xmlns="http://www.w3.org/2000/svg"
   xmlns:svg="http://www.w3.org/2000/svg">
  <defs
     id="defs1" />
  <sodipodi:namedview
     id="namedview1"
     pagecolor="#ffffff"
     bordercolor="#000000"
     borderopacity="0.25"
     inkscape:showpageshadow="2"
     inkscape:pageopacity="0.0"
     inkscape:pagecheckerboard="0"
     inkscape:deskcolor="#d1d1d1"
     inkscape:zoom="0.5117917"
     inkscape:cx="281.36447"
     inkscape:cy="227.63167"
     inkscape:window-width="1920"
     inkscape:window-height="991"
     inkscape:window-x="-9"
     inkscape:window-y="-9"
     inkscape:window-maximized="1"
     inkscape:current-layer="g1" />
  <g
     inkscape:groupmode="layer"
     inkscape:label="Image"
     id="g1">
    <path
       style="fill:#d6759c;fill-opacity:1;stroke-width:18.8976"
       d="m 578.90298,493.24192 9.67141,14.50711 15.19793,-2.76326 -6.21734,15.19793 53.88357,4.14489 32.46831,-42.13971 11.74385,-127.80078 17.27038,78.75291 33.15912,-15.19793 4.14489,-60.10091 L 736.4088,60.791721 689.43338,17.96119 665.94567,29.01423 366.82277,17.96119 231.42303,29.705045 179.6119,47.320828 118.47477,29.01423 74.953428,64.936611 43.175938,56.646831 8.6351876,80.479949 49.393273,118.47477 l 20.72445,-5.18111 11.398448,61.48254 -10.707633,32.1229 36.267792,13.12548 37.99482,-7.94437 71.15395,105.00388 30.74127,10.36222 -1.72704,43.52135 11.74385,27.28719 -25.21474,69.42691 -10.36223,20.03364 12.78008,6.90815 42.48512,-0.69082 14.50712,10.70763 49.73868,-0.69081 15.54333,-34.19534 -27.978,-172.70376 13.8163,-5.87192 76.81698,30.72977 109.41952,-11.72351 39.07839,14.65439 7.3272,20.51616 34.68208,-8.79264 13.18896,32.72816 -4.8848,63.99088 z"
       id="path35" />
    <path
       style="fill:#d6c3c3;fill-opacity:1;stroke:none;stroke-width:20"
       d="m 247.17087,469.91774 28.33184,2.93088 33.21663,-214.93119 -54.70975,-0.97696 1.95392,105.51167 11.72352,39.0784 z"
       id="path5" />
    <path
       style="fill:#d6c3c3;fill-opacity:1;stroke:none;stroke-width:20"
       d="m 593.99165,280.38751 41.03232,84.01855 -6.83872,75.22592 -21.49312,34.1936 18.56224,14.6544 27.35488,-40.05536 23.44704,-119.18912 -27.35488,-102.58079 z"
       id="path6" />
    <path
       style="fill:#f8e8e8;stroke:none;stroke-width:20;fill-opacity:1"
       d="m 127.00479,60.571517 -13.67744,101.603833 43.9632,44.94016 73.272,106.48863 36.14752,1.95392 75.22591,-38.10143 88.90336,31.26271 91.83423,-10.74655 166.0832,-94.76512 L 719.04252,96.719035 686.80285,37.124478 H 248.14783 l -79.13376,30.285759 z"
       id="path1" />
    <path
       style="fill:#eec9c9;fill-opacity:1;stroke:none;stroke-width:20"
       d="m 590.08381,213.95423 -62.52544,34.1936 -8.79264,45.91712 56.66368,21.49311 5.86176,16.60832 h 12.70048 l -2.93088,-20.51616 11.72352,-3.90784 32.23968,5.86176 63.50239,-64.47935 -1.95391,-50.80192 -23.44704,-16.60832 z"
       id="path2" />
    <path
       style="fill:#fdf8f8;fill-opacity:1;stroke:none;stroke-width:20"
       d="m 525.60445,233.49343 68.3872,30.28576 51.77888,127.98175 -0.97696,76.20288 -14.6544,28.33184 27.35488,7.81567 11.72352,-34.19359 14.6544,-145.56704 -27.35488,-67.41023 28.33184,-126.02784 -87.9264,24.424 z"
       id="path3" />
    <path
       style="fill:#fdf8f8;fill-opacity:1;stroke:none;stroke-width:20"
       d="m 309.6963,210.04639 18.56224,155.33663 12.70048,81.08768 -8.79264,41.03232 -21.49312,-8.79264 4.8848,-73.272 -68.38719,-178.78367 19.5392,-32.23968 z"
       id="path4" />
    <path
       style="fill:#ece4e4;fill-opacity:1;stroke:none;stroke-width:20"
       d="m 670.19453,37.124478 14.6544,-5.86176 40.05535,34.193599 6.83872,207.115513 -11.72352,1.95392 -6.83872,-175.852795 -24.42399,-41.032318 z"
       id="path7" />
    <path
       style="fill:#efd194;fill-opacity:1;stroke:none;stroke-width:20"
       d="m 722.95036,269.64095 -12.70048,46.89407 2.93088,57.64064 8.79264,45.91712 10.74656,-3.90784 7.81568,-51.77888 -3.90784,-66.43327 z"
       id="path8" />
    <path
       style="fill:#3f2e0a;fill-opacity:1;stroke:none;stroke-width:20"
       d="m 629.65069,491.77722 29.79728,9.64748 -10.62444,13.06683 -40.9102,-1.83179 z"
       id="path9" />
    <path
       style="fill:#291e07;fill-opacity:1;stroke:none;stroke-width:20"
       d="m 609.13453,472.48226 -17.7074,18.318 3.90784,3.54148 30.53,-0.24424 3.54148,-3.54148 z"
       id="path10" />
    <path
       style="fill:#291e07;fill-opacity:1;stroke:none;stroke-width:20"
       d="m 638.65847,463.53687 -9.67141,4.14489 3.45408,5.87193 4.4903,1.38163 z"
       id="path11" />
    <path
       style="fill:#3f2e0a;fill-opacity:1;stroke:none;stroke-width:20"
       d="m 671.47219,473.55369 -7.59897,1.72703 -2.41785,3.79949 4.4903,3.79948 5.87192,-0.34541 z"
       id="path12" />
    <path
       style="fill:#3f2e0a;fill-opacity:1;stroke:none;stroke-width:20"
       d="m 331.2458,460.08279 6.90815,-7.59896 7.25355,5.52652 1.38163,11.39845 z"
       id="path13" />
    <path
       style="fill:#291e07;fill-opacity:1;stroke:none;stroke-width:20"
       d="m 284.96119,446.26649 6.56274,8.9806 -7.25355,1.72704 -4.4903,3.79948 -7.94437,-4.83571 5.87192,-9.326 z"
       id="path14" />
    <path
       style="fill:#3f2e0a;fill-opacity:1;stroke:none;stroke-width:20"
       d="m 307.41268,475.28072 -17.27038,16.23416 3.45408,4.49029 31.77749,-2.07244 12.08926,-9.326 z"
       id="path15" />
    <path
       style="fill:#291e07;fill-opacity:1;stroke:none;stroke-width:20"
       d="m 247.65935,468.20806 -14.6544,13.18896 3.6636,4.39632 30.04152,0.48848 13.67744,-10.9908 -3.6636,-6.35024 z"
       id="path16" />
    <path
       style="fill:#fdf8f8;fill-opacity:1;stroke:none;stroke-width:20"
       d="m 120.20181,37.994825 -40.758084,35.231566 1.38163,37.994829 10.362225,46.2846 -1.38163,31.08668 36.613199,-0.69082 31.77749,-57.33764 2.76326,-64.245799 -23.48771,-24.178526 z"
       id="path17" />
    <path
       style="fill:#eec9c9;fill-opacity:1;stroke:none;stroke-width:20"
       d="m 89.115136,177.53946 -6.90815,24.86934 33.159124,8.28978 22.79689,-5.52652 -11.74385,-29.70505 z"
       id="path18" />
    <path
       style="fill:#372d2d;fill-opacity:1;stroke:none;stroke-width:20"
       d="m 157.77903,63.990877 56.66368,-9.7696 36.636,22.470079 -15.14288,80.599194 17.0968,55.19824 h -21.9816 l 8.30416,29.3088 -31.26272,-33.70512 -12.212,-2.4424 -15.14288,10.74656 -33.21664,-33.21664 13.18896,-53.24432 z"
       id="path27" />
    <path
       style="fill:#401616;fill-opacity:1;stroke:none;stroke-width:20"
       d="m 120.41031,189.28599 -6.83872,5.37328 1.70968,5.61752 10.01384,-7.3272 z"
       id="path19" />
    <path
       style="fill:#401616;fill-opacity:1;stroke:none;stroke-width:20"
       d="m 89.147596,189.53023 6.350239,6.59448 -5.617519,-1.95392 z"
       id="path20" />
    <path
       style="fill:#3e3333;fill-opacity:1;stroke:none;stroke-width:20"
       d="M 80.110716,78.645276 49.336478,66.433277 21.004639,83.041596 55.198237,109.41951 84.995516,94.276635 l 3.90784,-5.861759 z"
       id="path21" />
    <path
       style="fill:#3e3333;fill-opacity:1;stroke:none;stroke-width:20"
       d="m 159.73295,84.018556 30.77424,-7.3272 29.3088,15.142879 -31.7512,22.958555 -23.93552,-18.562235 -8.30416,-0.48848 -2.93088,-5.373279 z"
       id="path22" />
    <path
       style="fill:#3e3333;fill-opacity:1;stroke:none;stroke-width:20"
       d="m 151.9793,56.301423 -8.98059,5.871928 -24.86934,91.878399 15.88874,28.66882 26.94179,-47.66624 0.3454,-70.808534 z"
       id="path23" />
    <path
       style="fill:#3e3333;fill-opacity:1;stroke:none;stroke-width:20"
       d="M 94.987063,58.719276 100.85899,143.34411 88.769728,157.16041 77.371281,75.989651 Z"
       id="path24" />
    <path
       style="fill:#1c1818;fill-opacity:1;stroke:none;stroke-width:20"
       d="m 150.59767,102.06792 -5.35381,6.39004 4.31759,3.28137 6.73545,-3.45408 z"
       id="path25" />
    <path
       style="fill:#1c1818;fill-opacity:1;stroke:none;stroke-width:20"
       d="m 83.285836,104.77895 4.64056,5.37328 -5.12904,4.15208 -2.4424,-6.59448 z"
       id="path26" />
    <path
       style="fill:#372d2d;fill-opacity:1;stroke:none;stroke-width:20"
       d="m 266.71007,126.51631 -19.5392,20.51616 0.48848,30.28576 10.25808,20.02768 41.5208,16.60832 7.81567,-6.35024 -8.30415,-38.58992 z"
       id="path28" />
    <path
       style="fill:#372d2d;fill-opacity:1;stroke:none;stroke-width:20"
       d="m 316.04654,32.239678 6.35024,19.050719 -25.88943,21.981599 -19.5392,-2.4424 -13.18896,-35.659038 z"
       id="path29" />
    <path
       style="fill:#372d2d;fill-opacity:1;stroke:none;stroke-width:20"
       d="m 405.92686,28.331839 -18.56224,35.659038 -42.00928,33.705118 -17.58528,-21.981599 -25.88943,11.23504 19.05071,76.691354 14.16592,-9.7696 13.67744,46.89408 28.33184,30.28576 h 14.16592 l 36.636,35.65904 20.51616,-5.86176 15.14288,-3.90784 v -50.80192 l 22.95856,-28.33184 0.97696,-60.08304 22.47007,-38.589914 18.56224,-48.359518 z"
       id="path30" />
    <path
       style="fill:#372d2d;fill-opacity:1;stroke:none;stroke-width:20"
       d="m 565.65981,86.949436 35.65904,13.188964 10.74656,35.65903 -24.424,13.18896 -31.7512,-36.14752 z"
       id="path31" />
    <path
       style="fill:#372d2d;fill-opacity:1;stroke:none;stroke-width:20"
       d="m 669.70605,157.29055 -2.4424,-38.58992 10.25808,-24.423995 -23.93552,-12.211999 -15.63136,22.958554 13.18896,32.72816 -2.4424,21.49312 z"
       id="path32" />
    <path
       style="fill:#372d2d;fill-opacity:1;stroke:none;stroke-width:20"
       d="m 718.55404,107.46559 11.23504,-0.48848 -1.95392,-32.728154 -14.6544,-22.470079 -6.83872,2.93088 z"
       id="path33" />
    <path
       style="fill:#372d2d;fill-opacity:1;stroke:none;stroke-width:20"
       d="m 702.92269,110.39647 -16.11984,27.84336 -2.4424,28.33184 8.79264,3.41936 4.39632,0.48848 13.67743,-54.70976 z"
       id="path34" />
  </g>
</svg>
