<?xml version="1.0" encoding="UTF-8" standalone="no"?>
<!-- Created with Inkscape (http://www.inkscape.org/) -->

<svg
   version="1.1"
   id="svg1"
   width="1920"
   height="1554"
   viewBox="0 0 1920 1554"
   sodipodi:docname="dog.svg"
   inkscape:version="1.4 (86a8ad7, 2024-10-11)"
   inkscape:export-filename="dog.png"
   inkscape:export-xdpi="96"
   inkscape:export-ydpi="96"
   xmlns:inkscape="http://www.inkscape.org/namespaces/inkscape"
   xmlns:sodipodi="http://sodipodi.sourceforge.net/DTD/sodipodi-0.dtd"
   xmlns="http://www.w3.org/2000/svg"
   xmlns:svg="http://www.w3.org/2000/svg">
  <defs
     id="defs1" />
  <sodipodi:namedview
     id="namedview1"
     pagecolor="#ffffff"
     bordercolor="#000000"
     borderopacity="0.25"
     inkscape:showpageshadow="2"
     inkscape:pageopacity="0.0"
     inkscape:pagecheckerboard="0"
     inkscape:deskcolor="#d1d1d1"
     inkscape:zoom="0.497426"
     inkscape:cx="991.1022"
     inkscape:cy="860.4295"
     inkscape:window-width="1920"
     inkscape:window-height="991"
     inkscape:window-x="-9"
     inkscape:window-y="-9"
     inkscape:window-maximized="1"
     inkscape:current-layer="g1" />
  <g
     inkscape:groupmode="layer"
     inkscape:label="Image"
     id="g1">
    <path
       style="fill:#d6759c;fill-opacity:1;stroke:none;stroke-width:18.8976;stroke-opacity:1"
       d="m 336.73351,1014.2212 -21.10867,23.119 -4.0207,92.4761 21.10867,27.1397 124.64165,-2.0103 27.13972,-9.0466 4.0207,67.3467 26.13454,72.3726 94.48641,-1.0052 91.4709,-42.2173 -39.20181,-64.3312 13.06727,-84.4347 57.29495,-45.2328 9.04657,-30.1553 156.80725,65.3364 0.0763,87.7638 55.43973,167.7407 53.04281,53.0841 224.154,-11.0569 -66.3416,-112.5796 20.1035,-82.4243 14.0725,-216.11257 26.1345,-157.81242 -7.0362,-155.80207 15.0776,-44.22768 5.3917,-50.4312 34.2875,-71.55031 -23.5964,-35.83091 -32.1656,-11.05692 -21.1086,-45.23286 -22.1139,-8.0414 -71.3674,-31.16041 -56.2898,-3.01553 -66.34146,34.17594 -50.25873,32.16559 -34.17594,95.49159 21.10867,50.25873 -53.27425,52.26909 -220.13325,-8.0414 -127.65718,53.27425 -65.33635,101.52264 -7.03623,58.30013 -30.15524,94.48642 z"
       id="path23"
       sodipodi:nodetypes="cccccccccccccccccccccccccccccccccccccccccccc" />
    <path
       style="fill:#464133;stroke:none;stroke-width:18.8976;fill-opacity:1"
       d="m 742.0395,963.79843 -24.16603,66.81197 -55.43974,55.4398 -18.47991,90.978 36.95982,59.7043 -63.96892,17.0584 -31.27369,-98.0857 -18.47992,-197.59289 z"
       id="path1" />
    <path
       style="fill:#bfa664;fill-opacity:1;stroke:none;stroke-width:18.8976"
       d="m 682.33518,852.91897 254.45415,156.36843 41.22442,83.8704 -331.21687,-123.67324 z"
       id="path5"
       sodipodi:nodetypes="ccccc" />
    <path
       style="fill:#d5c59a;fill-opacity:1;stroke:none;stroke-width:18.8976"
       d="m 534.49589,685.17824 -113.72253,247.3465 -88.13496,113.72256 -4.2646,90.978 140.73163,-2.8431 109.45794,-152.10385 z"
       id="path2" />
    <path
       style="fill:#bfa664;fill-opacity:1;stroke:none;stroke-width:18.8976"
       d="m 506.06525,1209.7234 22.74451,61.1259 66.81199,-1.4216 -28.43064,-117.9871 169.16227,-254.45415 -54.0182,-92.39956 -116.5656,98.08569 -89.55649,-38.38136 z"
       id="path3" />
    <path
       style="fill:#f3eee1;fill-opacity:1;stroke:none;stroke-width:18.8976"
       d="m 471.9485,761.94095 -17.05838,59.70432 29.85216,69.65505 92.39956,27.0091 96.66415,-89.55649 113.72252,-187.64217 -144.99622,-12.79379 -115.14406,49.75361 z"
       id="path4" />
    <path
       style="fill:#e7d9bb;fill-opacity:1;stroke:none;stroke-width:18.8976"
       d="m 933.94627,585.67103 -69.65505,56.86126 -99.50721,-7.10766 -83.87037,169.16226 41.22442,83.87037 L 921.15249,1007.8659 1091.7363,771.89167 942.47546,538.76048 Z"
       id="path6" />
    <path
       style="fill:#bfa664;fill-opacity:1;stroke:none;stroke-width:18.8976"
       d="m 908.3587,1006.4444 123.6733,-223.18048 51.1751,-78.18424 75.3412,45.48901 51.1751,66.81199 -39.8029,258.71872 -201.85747,19.9015 -62.54739,-79.6058 z"
       id="path7"
       sodipodi:nodetypes="ccccccccc" />
    <path
       style="fill:#7e6845;fill-opacity:1;stroke:none;stroke-width:18.8976"
       d="m 932.63929,529.27537 269.97641,26.54349 6.3969,269.38024 -84.5811,-84.58113 -68.9442,-8.52919 z"
       id="path10"
       sodipodi:nodetypes="cccccc" />
    <path
       style="fill:#ebe4da;fill-opacity:1;stroke:none;stroke-width:18.8976"
       d="m 1068.281,371.01975 -108.03639,47.62131 -49.04284,87.4242 19.90144,53.30743 88.84569,37.67059 20.6122,-50.46437 36.9599,63.25815 54.0182,33.406 78.895,-1.42154 10.0665,-22.16794 -10.7503,-34.72037 46.1728,-90.95097 -14.9261,-24.87681 -33.406,-14.92608 -10.6615,-27.71987 -39.0921,-36.95982 z"
       id="path11"
       sodipodi:nodetypes="ccccccccccccccccc" />
    <path
       style="fill:#332a1c;fill-opacity:1;stroke:none;stroke-width:18.8976"
       d="m 1222.5172,470.52696 -23.4553,7.81843 -5.6861,22.03374 27.7199,16.34761 31.2737,-5.68612 6.3968,-20.61221 -11.3722,-19.19068 z"
       id="path12" />
    <path
       style="fill:#6a433a;fill-opacity:1;stroke:none;stroke-width:18.8976"
       d="m 1105.9516,572.16648 113.1127,-0.92634 -2.944,22.24931 -1.1049,12.79378 -55.239,3.56862 -59.7339,-22.46489 z"
       id="path14"
       sodipodi:nodetypes="ccccccc" />
    <path
       style="fill:#332a1c;fill-opacity:1;stroke:none;stroke-width:18.8976"
       d="m 1213.2624,556.97557 -31.2589,10.21554 -88.1349,-4.26459 -2.8431,24.16604 36.9598,39.09212 90.9781,1.42153 4.9753,-21.32298 -7.8184,-6.39689 -63.9689,4.2646 -44.0675,-17.76915 -2.1323,-9.95072 67.7937,13.19535 21.9771,-7.30105 21.8342,-11.63094 4.7733,-6.76274 z"
       id="path13"
       sodipodi:nodetypes="cccccccccccccccc" />
    <path
       style="fill:#e4d3cf;fill-opacity:1;stroke:none;stroke-width:18.8976"
       d="m 1174.1851,604.15094 6.3969,-7.81843 -1.4215,-11.37225 12.7938,16.34761 -4.2646,5.68613 z"
       id="path15" />
    <path
       style="fill:#e4d3cf;fill-opacity:1;stroke:none;stroke-width:18.8976"
       d="m 1209.0126,584.24949 -0.7107,19.90145 7.1076,0.71076 z"
       id="path16" />
    <path
       style="fill:#332a1c;fill-opacity:1;stroke:none;stroke-width:18.8976"
       d="m 1086.7609,454.89012 21.323,-16.34762 9.2399,14.21532 -9.9507,7.10766 z"
       id="path18" />
    <path
       style="fill:#332a1c;fill-opacity:1;stroke:none;stroke-width:18.8976"
       d="m 1182.2474,442.39074 3.5539,10.66148 10.6614,1.42154 -4.9753,-14.21532 z"
       id="path19" />
    <path
       style="fill:#bfa664;fill-opacity:1;stroke:none;stroke-width:18.8976"
       d="m 912.6233,1020.6597 2.84306,157.79 48.33207,154.947 46.91057,41.2244 79.6057,-2.8431 -15.6368,-41.2244 -18.4799,-122.2517 -17.0584,-68.2335 9.9507,-56.8613 -46.9105,-49.7536 -39.8029,-12.7938 z"
       id="path21" />
    <path
       style="fill:#7e6845;fill-opacity:1;stroke:none;stroke-width:18.8976"
       d="m 1186.714,973.55071 -21.0581,224.80049 -15.6368,71.0765 68.2335,103.7718 -92.3996,1.4216 -39.8028,-35.5383 -30.5421,-150.9263 -3.5747,-109.214 42.6459,-38.3814 z"
       id="path22"
       sodipodi:nodetypes="cccccccccc" />
  </g>
</svg>
