<?xml version="1.0" encoding="UTF-8" standalone="no"?>
<!-- Created with Inkscape (http://www.inkscape.org/) -->

<svg
   version="1.1"
   id="svg1"
   width="1280"
   height="761"
   viewBox="0 0 1280 761"
   sodipodi:docname="falcon.svg"
   inkscape:version="1.4 (86a8ad7, 2024-10-11)"
   xmlns:inkscape="http://www.inkscape.org/namespaces/inkscape"
   xmlns:sodipodi="http://sodipodi.sourceforge.net/DTD/sodipodi-0.dtd"
   xmlns="http://www.w3.org/2000/svg"
   xmlns:svg="http://www.w3.org/2000/svg">
  <defs
     id="defs1" />
  <sodipodi:namedview
     id="namedview1"
     pagecolor="#ffffff"
     bordercolor="#000000"
     borderopacity="0.25"
     inkscape:showpageshadow="2"
     inkscape:pageopacity="0.0"
     inkscape:pagecheckerboard="0"
     inkscape:deskcolor="#d1d1d1"
     inkscape:zoom="0.50788436"
     inkscape:cx="480.42432"
     inkscape:cy="225.44502"
     inkscape:window-width="1920"
     inkscape:window-height="991"
     inkscape:window-x="-9"
     inkscape:window-y="-9"
     inkscape:window-maximized="1"
     inkscape:current-layer="g1" />
  <g
     inkscape:groupmode="layer"
     inkscape:label="Image"
     id="g1">
    <path
       style="fill:#d6759c;fill-opacity:1;stroke-width:8"
       d="m 824.21757,513.74372 v 0 l -13.9226,53.60199 83.53557,64.74006 -11.83421,24.36454 -18.09937,0.69613 -17.40324,32.02197 -29.93358,-10.44195 -22.27615,25.7568 -64.74006,-27.14906 -16.70711,11.13808 -21.58002,-7.65743 -12.53034,-30.62971 -22.97228,8.35356 -48.03295,95.36977 -73.09362,5.56904 L 460.83786,736.50523 426.03138,694.73744 535.32374,552.03085 321.61192,531.14696 303.51255,503.30178 145.49111,451.78818 62.651673,464.31851 66.132322,436.47332 23.66841,437.16945 30.629707,410.71652 1.3922594,399.57845 13.922594,381.47908 0.6961297,355.72228 45.94456,329.96548 38.287134,299.33577 396.79393,209.53504 l 131.56851,-0.69613 149.66789,54.99425 73.78975,1.39226 45.94456,-24.36454 19.49163,-28.54132 64.04393,-38.28713 25.7568,2.78451 L 1117.9843,63.347803 1258.6025,4.1767782 1277.398,29.237448 1035.1449,249.91056 939.07897,392.61715 Z"
       id="path29" />
    <path
       style="fill:#71655c;stroke-width:8;fill-opacity:1"
       d="m 560.16688,537.52393 -116.16817,157.51617 28.5498,27.56533 71.86676,25.59638 h 50.20827 L 654.67658,625.1423 604.46831,511.92755 Z"
       id="path1" />
    <path
       style="fill:#574c46;fill-opacity:1;stroke-width:8"
       d="m 613.32859,486.33118 -22.64295,133.88874 44.30142,28.54981 54.14619,-13.78267 88.60284,-97.46313 z"
       id="path2" />
    <path
       style="fill:#ac9f98;fill-opacity:1;stroke-width:8"
       d="m 654.67658,512.91203 11.81372,13.78267 41.34799,45.2859 26.58086,-12.79819 -6.89134,-28.54981 56.11514,43.31695 19.68952,-7.87581 7.87581,-53.16171 115.1837,-130.93532 11.81371,-116.16817 -105.40167,-17.22109 -118.26255,70.77009 z"
       id="path3"
       sodipodi:nodetypes="ccccccccccccc" />
    <path
       style="fill:#8b796f;fill-opacity:1;stroke-width:8"
       d="m 365.24062,232.33635 -311.094436,86.6339 13.811645,19.75948 -56.819754,26.04223 12.530335,16.70712 -11.138075,13.92259 34.806485,9.74582 -9.745816,20.88389 48.729077,0 -8.353554,25.06067 68.220713,-12.53034 168.46339,52.90586 15.31485,25.06067 356.41841,27.84519 4.17678,-75.18201 L 432.99268,325.7887 362.6221,309.12257 317.43514,274.2751 Z"
       id="path4"
       sodipodi:nodetypes="ccccccccccccccccccc" />
    <path
       style="fill:#ac9f98;fill-opacity:1;stroke-width:8"
       d="m 698.48577,461.71928 -40.36352,2.46119 -224.95278,-137.33442 -94.01746,-1.96895 -24.11967,-52.66947 43.31695,-36.42561 134.38098,-4.92238 237.65203,78.60366 33.62005,6.57959 z"
       id="path5"
       sodipodi:nodetypes="cccccccccc" />
    <path
       style="fill:#8b796f;fill-opacity:1;stroke-width:8"
       d="m 927.13034,378.28493 v 0 l -28.64626,-110.14188 114.78792,-104.4739 99.1433,-82.918104 146.8833,-67.176517 -5.569,10.441946 16.011,-1.740324 -244.6896,219.628919 z"
       id="path6"
       sodipodi:nodetypes="cccccccccc" />
    <path
       style="fill:#6e3f28;fill-opacity:1;stroke-width:8"
       d="m 1120.7688,79.358786 -104.4194,84.927824 -80.05495,81.44718 -124.60722,19.49163 -84.92782,52.90585 -233.89958,-82.83943 -138.87788,2.08839 17.05518,-8.35356 132.96078,-10.79001 164.46134,53.97097 92.04851,6.89134 247.48804,-144.04981 z M 974.23352,187.25889 853.45502,329.96548"
       id="path15" />
    <path
       style="fill:#634e41;fill-opacity:1;stroke-width:8"
       d="m 875.44534,188.77329 -1.96895,3.44566 -37.16397,34.70278 -19.93564,9.10641 -3.44567,33.7183 15.5055,16.98221 45.03978,18.95117 34.70278,-4.43014 21.16624,-12.30595 -0.24612,-14.52103 15.5055,-8.36804 0.73835,-20.92012 4.92238,-22.88907 -28.05756,-30.02652 z"
       id="path17" />
    <path
       style="fill:#2f231e;fill-opacity:1;stroke-width:8"
       d="m 923.24202,233.37748 4.00275,17.05518 -11.66018,21.40599 -0.87016,-12.18227 -6.61323,-4.87291 z"
       id="path9" />
    <path
       style="fill:#b5a323;fill-opacity:1;stroke-width:8"
       d="m 886.52118,216.14827 -8.00549,-1.91435 -4.35081,8.87565 9.04968,4.87291 5.56904,-3.82872 -1.56629,-6.61323 z"
       id="path10" />
    <path
       style="fill:#b5a323;fill-opacity:1;stroke-width:8"
       d="m 944.29994,230.2449 -5.22097,5.56904 -0.17403,7.48339 6.61323,-3.13258 1.74032,-3.82872 z"
       id="path11" />
    <path
       style="fill:#2d1a12;fill-opacity:1;stroke-width:8"
       d="m 881.99633,216.49634 -3.30661,5.04694 2.08839,4.00274 4.00274,-3.48064 z"
       id="path13" />
    <path
       style="fill:#2d1a12;fill-opacity:1;stroke-width:8"
       d="m 943.95188,233.37748 0.17403,4.69888 -3.30662,2.95855 -0.17403,-4.17678 z"
       id="path14" />
    <path
       style="fill:#907114;fill-opacity:1;stroke-width:8"
       d="m 731.28425,558.29602 35.85068,58.82296 35.85068,21.23196 -5.9171,16.01098 -6.9613,-4.17678 6.61324,30.62971 -9.74582,0.34807 -13.57453,-34.80649 -13.92259,-9.74582 1.39226,30.28165 -7.65743,-3.13259 -10.09388,-38.98326 -23.32035,29.93358 -15.31485,-20.18777 35.50261,-21.58002 -28.54131,-46.64069 z"
       id="path18" />
    <path
       style="fill:#907114;fill-opacity:1;stroke-width:8"
       d="m 786.2785,570.13023 25.06067,27.14906 -16.01098,14.61872 7.30936,6.9613 11.8342,-7.65743 9.74582,4.52484 10.44194,-7.30936 10.44195,53.95005 h 10.09388 l -12.8784,-53.60198 -2.43645,-12.18227 -44.20424,-32.37004 z"
       id="path19" />
    <path
       style="fill:#251d03;fill-opacity:1;stroke-width:8"
       d="m 710.0523,637.65481 -10.79001,14.61872 5.56903,22.97228 13.9226,5.56904 -9.04969,-11.8342 -3.48065,-13.57453 9.39776,-8.35356 z"
       id="path20" />
    <path
       style="fill:#251d03;fill-opacity:1;stroke-width:8"
       d="m 754.25653,662.45443 5.22098,2.26242 -5.13396,10.703 -6.17815,1.74032 -7.22235,-2.34944 6.78727,-0.43508 z"
       id="path21" />
    <path
       style="fill:#251d03;fill-opacity:1;stroke-width:8"
       d="m 787.67076,679.59662 0.87016,8.52759 -5.56904,3.82872 -6.78726,0.52209 9.22372,3.13259 8.70162,-4.52485 -0.17403,-12.3563 z"
       id="path22" />
    <path
       style="fill:#251d03;fill-opacity:1;stroke-width:8"
       d="m 796.72045,650.70724 6.4392,9.39775 -0.87017,11.48614 -5.56903,5.9171 9.57178,-5.04694 2.95855,-13.05243 -3.82871,-13.92259 -7.13533,-3.65468 z"
       id="path23" />
    <path
       style="fill:#251d03;fill-opacity:1;stroke-width:8"
       d="m 846.64942,661.56792 h 5.66074 l -0.98448,6.39909 -8.12193,7.38357 -12.79819,1.2306 -2.46119,-2.95343 6.89134,0.49224 8.36804,-5.90686 z"
       id="path24" />
    <path
       style="fill:#907114;fill-opacity:1;stroke-width:8"
       d="m 833.35899,597.08474 1.96895,3.19954 48.23933,28.30369 -8.36805,6.89133 -10.58311,-11.07535 -24.85802,-12.55207 z"
       id="path25" />
    <path
       style="fill:#251d03;fill-opacity:1;stroke-width:8"
       d="m 875.69146,632.52587 2.46119,8.61417 -7.87581,9.1064 12.05984,-6.15297 1.47671,-11.81372 -3.9379,-3.69178 z"
       id="path26" />
    <path
       style="fill:#251d03;fill-opacity:1;stroke-width:8"
       d="m 825.97542,612.098 -2.70731,10.58311 -8.61416,16.7361 16.48997,-16.98222 3.69179,-15.50549 z"
       id="path27" />
    <path
       style="fill:#251d03;fill-opacity:1;stroke-width:8"
       d="m 798.16397,613.08247 -7.62969,2.95343 -3.19954,7.13745 v 4.18402 l 3.69178,-6.64521 12.05983,-3.9379 z"
       id="path28" />
  </g>
</svg>
