<?xml version="1.0" encoding="UTF-8" standalone="no"?>
<!-- Created with Inkscape (http://www.inkscape.org/) -->

<svg
   version="1.1"
   id="svg1"
   width="1706.6667"
   height="1280"
   viewBox="0 0 1706.6667 1280"
   sodipodi:docname="frog.svg.2025_01_24_10_03_37.5.svg"
   inkscape:version="1.4 (86a8ad7, 2024-10-11)"
   inkscape:export-filename="frog.svg.2025_01_24_10_03_37.5.png"
   inkscape:export-xdpi="96"
   inkscape:export-ydpi="96"
   xmlns:inkscape="http://www.inkscape.org/namespaces/inkscape"
   xmlns:sodipodi="http://sodipodi.sourceforge.net/DTD/sodipodi-0.dtd"
   xmlns="http://www.w3.org/2000/svg"
   xmlns:svg="http://www.w3.org/2000/svg">
  <defs
     id="defs1" />
  <sodipodi:namedview
     id="namedview1"
     pagecolor="#ffffff"
     bordercolor="#000000"
     borderopacity="0.25"
     inkscape:showpageshadow="2"
     inkscape:pageopacity="0.0"
     inkscape:pagecheckerboard="0"
     inkscape:deskcolor="#d1d1d1"
     inkscape:zoom="0.30195313"
     inkscape:cx="-115.91203"
     inkscape:cy="899.14618"
     inkscape:window-width="1920"
     inkscape:window-height="991"
     inkscape:window-x="-9"
     inkscape:window-y="-9"
     inkscape:window-maximized="1"
     inkscape:current-layer="g1" />
  <g
     inkscape:groupmode="layer"
     inkscape:label="Image"
     id="g1">
    <path
       style="fill:#d6759c;fill-opacity:1;stroke-width:18.8976"
       d="m 740.00143,319.65251 22.24687,1.17089 170.9497,-3.51266 33.95576,-31.61399 181.48774,91.32929 168.6079,179.14592 64.3988,183.82947 -48.0064,37.46842 67.9115,101.86729 -19.9051,40.98109 28.1014,55.03175 -21.076,15.22155 -60.8862,-69.08241 -63.228,9.3671 -44.4938,-87.81662 -81.9621,127.62683 -14.0507,91.32927 -45.6646,10.538 -11.7089,-72.59507 -107.72176,65.56977 -48.00642,-29.2722 87.81663,-83.1331 -104.20906,3.51267 c -0.75228,-17.56375 0.50316,-34.81754 2.60508,-52.19636 l 148.44433,-23.25848 -301.46757,11.5539 -101.02986,-92.37375 37.23664,100.95095 129.47695,11.82582 13.16388,46.13241 -98.20826,3.21995 78.44952,57.37349 -10.538,38.6394 -97.18373,-44.4938 18.73421,50.3482 -12.87977,11.7089 -163.92437,-134.65218 -37.46842,-153.38637 5.85444,-24.58866 -57.37353,-23.41776 -11.70888,22.24687 15.22155,79.62041 -25.75955,5.85444 -1.17089,79.62041 -31.61398,1.17089 -21.07599,-53.86087 1.17089,-60.88619 -44.49376,26.93043 -24.58865,-21.07599 49.17731,-88.98751 L 307.94363,670.91901 421.5198,434.39957 679.11523,272.81698 Z"
       id="path2"
       sodipodi:nodetypes="cccccccccccccccccccccccccccccccccccccccccccccccccccccc" />
    <path
       style="fill:#bdd462;fill-opacity:1;stroke-width:1.00157"
       d="m 327.86546,670.63389 175.52393,72.85899 809.72831,24.8383 52.9884,-36.4295 -62.9237,-168.90039 -162.2768,-165.58861 -168.90043,-97.69729 -26.49417,31.46184 -198.70634,4.96766 -28.15007,33.11772 9.93532,-52.98835 -49.67659,-29.80595 -241.75937,155.65329 z"
       id="path3"
       sodipodi:nodetypes="cccccccccccccc" />
    <path
       style="fill:#bdd462;fill-opacity:1;stroke-width:1.00157"
       d="m 1310.224,764.59008 82.5477,117.67428 -3.5127,1.75633 -73.766,-60.88619 84.304,148.11737 -6.4399,4.09811 -111.8198,-133.48127 4.6835,73.18052 h -12.8797 l -78.4496,-168.02247 z"
       id="path13" />
    <path
       style="fill:#c7cbad;fill-opacity:1;stroke-width:1.00157"
       d="m 721.96636,712.03105 -102.66494,54.64424 129.15912,107.6326 276.53296,-6.62354 163.9328,-96.0414 -21.5266,-56.30013 29.806,-41.39715 -6.6236,-24.8383 -71.2031,66.23545 -77.8266,38.08538 -122.53558,-23.1824 -203.674,-101.00906 -33.11772,-4.96766 z"
       id="path4" />
    <path
       style="fill:#a8bb21;fill-opacity:1;stroke-width:1.00157"
       d="m 723.62225,703.75162 -41.39715,-41.39716 -134.12678,11.59121 -23.18241,115.91203 33.11773,139.09443 142.4062,132.47087 -31.46183,-76.17074 117.56791,57.95604 4.96766,-18.2148 -102.66494,-72.85896 117.56792,-4.96766 -6.62355,-24.83829 -134.12677,-9.93532 -46.36482,-137.43855 z"
       id="path5" />
    <path
       style="fill:#a8bb21;fill-opacity:1;stroke-width:1.00157"
       d="m 904.11384,919.01682 1.65589,21.52652 129.15907,-4.96766 -97.69723,101.00902 19.87063,8.2795 120.8797,-77.82668 16.5589,87.76198 18.2147,-3.3118 9.9353,-81.13841 149.0298,-246.72704 -79.4826,-57.95601 -26.4941,48.02069 -1.6559,61.26779 -107.6326,120.87969 z"
       id="path6" />
    <path
       style="fill:#a8be03;fill-opacity:1;stroke-width:1.00157"
       d="m 761.70763,334.489 -33.11772,46.36482 110.94437,112.60026 62.92368,-6.62355 18.21474,66.23545 -84.45019,115.91203 177.17979,59.6119 134.1268,-54.64424 -94.3855,-122.53558 -3.3118,-71.2031 -21.5265,-142.40621 z"
       id="path7" />
    <path
       style="fill:#dcf340;fill-opacity:1;stroke-width:1.00157"
       d="m 914.04916,521.60414 -38.08538,-29.80595 -48.0207,39.74127 1.65589,57.95601 44.70892,3.31177 z"
       id="path8" />
    <path
       style="fill:#dcf340;fill-opacity:1;stroke-width:1.00157"
       d="m 1106.132,505.04528 -16.5589,43.05304 34.7736,44.70892 24.8383,-14.90297 -13.2471,-66.23545 z"
       id="path9" />
    <path
       style="fill:#181d02;fill-opacity:1;stroke-width:1.00157"
       d="m 884.24321,551.41009 -16.55886,-31.46184 -28.15007,9.93532 3.31177,31.46184 28.15007,4.96766 z"
       id="path10" />
    <path
       style="fill:#181d02;fill-opacity:1;stroke-width:1.00157"
       d="m 1134.282,513.32471 -16.5588,28.15006 14.9029,21.52652 18.2148,4.96766 1.6559,-43.05304 z"
       id="path11" />
    <path
       style="fill:#bdd462;fill-opacity:1;stroke-width:1.00157"
       d="m 341.89939,673.26079 28.68677,50.93364 -47.42098,94.25651 5.85444,6.43989 50.93364,-35.71209 11.12344,92.50017 13.73922,37.42682 11.2239,0.78634 -3.88713,-34.11505 2.92722,-98.35462 17.56333,48.00642 8.19622,-1.75633 -11.70889,-76.69318 9.36711,-36.29754 4.68355,-14.05066 z"
       id="path14"
       sodipodi:nodetypes="cccccccccccccccc" />
    <path
       style="fill:#000000;fill-opacity:0;stroke-width:18.8976"
       d="m 748.46054,321.24191 183.80337,-1.65588 51.33247,-43.05304 172.21212,104.32083 172.2122,172.21216 62.9237,197.05045 -51.3325,29.80595 69.5472,110.94437 1.6559,102.66494 -160.621,-67.89133 -43.053,-48.0207 -66.2354,96.0414 -8.2795,101.00904 h -67.8913 l -8.2794,-54.6442 -104.32086,54.6442 -54.64424,-26.4942 61.26779,-79.4825 -81.13843,-4.96766 -23.1824,-51.33247 -23.18241,-3.31177 v 51.33247 l -71.2031,11.5912 59.6119,38.08543 -16.55886,46.3648 -92.72963,-11.5912 3.31177,39.7412 -178.8357,-129.15909 -38.08538,-172.21216 -41.39716,-31.46183 1.65589,94.38551 -31.46184,91.07374 -36.42949,1.65588 -26.49418,-117.56792 -56.30013,16.55887 24.83829,-129.15912 -29.80595,-48.0207 109.28849,-233.47995 266.59767,-170.55628 z"
       id="path1" />
  </g>
</svg>
