<?xml version="1.0" encoding="UTF-8" standalone="no"?>
<!-- Created with Inkscape (http://www.inkscape.org/) -->

<svg
   version="1.1"
   id="svg1"
   width="600"
   height="650"
   viewBox="0 0 600 650"
   sodipodi:docname="moose.svg"
   inkscape:version="1.4 (86a8ad7, 2024-10-11)"
   inkscape:export-filename="moose.png"
   inkscape:export-xdpi="96"
   inkscape:export-ydpi="96"
   xmlns:inkscape="http://www.inkscape.org/namespaces/inkscape"
   xmlns:sodipodi="http://sodipodi.sourceforge.net/DTD/sodipodi-0.dtd"
   xmlns="http://www.w3.org/2000/svg"
   xmlns:svg="http://www.w3.org/2000/svg">
  <defs
     id="defs1" />
  <sodipodi:namedview
     id="namedview1"
     pagecolor="#ffffff"
     bordercolor="#000000"
     borderopacity="0.25"
     inkscape:showpageshadow="2"
     inkscape:pageopacity="0.0"
     inkscape:pagecheckerboard="0"
     inkscape:deskcolor="#d1d1d1"
     inkscape:zoom="0.84091314"
     inkscape:cx="388.86299"
     inkscape:cy="209.89088"
     inkscape:window-width="1920"
     inkscape:window-height="991"
     inkscape:window-x="-9"
     inkscape:window-y="-9"
     inkscape:window-maximized="1"
     inkscape:current-layer="g1" />
  <g
     inkscape:groupmode="layer"
     inkscape:label="Image"
     id="g1">
    <path
       style="fill:#d6759c;fill-opacity:1;stroke-width:8"
       d="m 255.67444,286.59321 1.18919,12.48643 45.78356,156.97222 13.67561,134.37773 -14.86479,20.21612 11.89183,16.05397 38.64846,1.18919 14.27021,-8.32429 7.72969,7.7297 h 35.6755 l 9.51347,-29.72959 -24.97285,-87.99958 12.48642,-170.05323 65.99969,-5.35133 2.97295,35.67551 23.18908,48.16193 -5.94592,124.86426 -11.89183,36.86469 31.51336,3.56755 -0.59459,10.70265 43.4052,8.32428 11.89183,-32.70254 -6.54051,-23.78367 17.83775,-149.24253 -10.70265,-32.10795 42.81061,-165.2965 -36.86469,-74.91856 -60.05376,-21.99989 -96.32386,10.10806 -50.5403,-28.540406 -64.8105,-8.918876 -21.99989,17.24316 -41.02683,4.162142 22.59448,-59.459173 -2.97296,-24.378261 -36.27009,19.621527 -2.97296,20.216119 -23.78367,5.945918 -10.10806,-2.972959 -20.21612,33.297137 -11.89183,-0.594592 -11.89184,-6.540509 8.32429,-26.162036 -2.97296,-26.162036 -14.00517,-0.545086 -6.72704,9.670117 -11.77231,0.84088 -5.88616,15.556274 -9.670116,-10.510996 -9.249677,4.204398 4.624838,24.805951 L 75.679172,60.122898 64.747736,66.429496 76.940492,111.837 71.474774,116.46184 51.293661,73.576973 42.043984,74.417853 42.464424,97.542044 28.589909,92.917206 26.90815,81.14489 3.3635188,72.315653 l -7.1474774,9.670117 10.5109961,35.31695 22.2833115,31.11255 63.486417,5.46571 -55.918499,51.29366 -11.772316,22.28332 2.102199,41.62354 15.556274,9.67012 18.499354,-2.1022 27.328589,2.52264 14.294953,-17.65848 28.16947,21.86288 h 21.44243 l 0.42044,31.11254 18.07892,6.72704 18.07891,-8.82924 4.62484,-14.71539 -2.94308,-17.23803 7.14748,-12.6132 z"
       id="path20" />
    <path
       style="fill:#442c15;stroke-width:8;fill-opacity:1"
       d="m 266.55886,280.85382 47.93014,174.90297 15.97672,134.54075 21.86287,-1.68176 -10.93144,-144.6313 -5.04527,-145.47219 -26.06727,-48.77102 z"
       id="path1" />
    <path
       style="fill:#442c15;fill-opacity:1;stroke-width:8"
       d="m 481.82406,285.05821 4.2044,76.52006 26.06727,56.33894 -9.24968,126.13195 15.97672,2.52264 20.18111,-132.85899 -15.97671,-73.99742 14.29495,-71.47477 -21.86287,-14.29495 z"
       id="path2" />
    <path
       style="fill:#573b1f;fill-opacity:1;stroke-width:8"
       d="m 174.0621,215.2652 22.07309,34.05563 42.2542,18.70957 159.3467,64.95796 75.67918,-9.24968 101.74644,-49.6119 21.86287,-79.04269 -31.95343,-61.38422 -52.13454,-15.97671 -101.74644,5.88615 -44.56663,-30.271664 -58.02069,-8.408797 -26.06727,18.499351 -116.88228,2.52264 -13.45408,61.38422 z"
       id="path3"
       sodipodi:nodetypes="cccccccccccccccc" />
    <path
       style="fill:#573b1f;fill-opacity:1;stroke-width:8"
       d="m 321.21604,186.67529 41.20311,-17.65847 30.27167,32.79431 1.68175,141.26778 -10.09055,165.6533 17.65847,73.99741 -24.38551,6.72704 -4.2044,-76.52005 -18.49935,-37.83959 -8.4088,-115.20051 -49.6119,-79.88357 z"
       id="path4" />
    <path
       style="fill:#573b1f;fill-opacity:1;stroke-width:8"
       d="m 533.9586,226.19664 -11.77231,91.65588 23.54463,146.31307 -13.45408,88.29237 20.18112,0.84088 13.45407,-152.19923 -8.4088,-34.47607 34.47607,-144.6313 -15.13583,-41.20311 -36.99871,12.6132 z"
       id="path5" />
    <path
       style="fill:#2c271f;fill-opacity:1;stroke-width:8"
       d="m 332.14748,588.61578 -17.65848,23.54463 9.24968,4.2044 -3.36352,6.72704 21.86287,0.84088 9.24968,-15.97671 8.4088,5.88615 -8.4088,-26.06727 z"
       id="path6" />
    <path
       style="fill:#2c271f;fill-opacity:1;stroke-width:8"
       d="m 375.03234,591.13842 0.84088,27.74903 27.74903,1.68176 -4.2044,-19.34023 10.09056,1.68176 -8.4088,-22.70375 z"
       id="path7" />
    <path
       style="fill:#2c271f;fill-opacity:1;stroke-width:8"
       d="m 502.00517,540.68564 -8.40879,31.11255 25.22639,2.52264 -1.68176,-28.58991 z"
       id="path8" />
    <path
       style="fill:#2c271f;fill-opacity:1;stroke-width:8"
       d="m 533.11772,549.09444 -10.09055,37.83958 26.90815,5.04528 0.84088,-15.13583 6.72703,3.36352 -5.04527,-29.43079 z"
       id="path9" />
    <path
       style="fill:#463525;fill-opacity:1;stroke-width:8"
       d="m 194.03299,260.88293 -9.03946,19.13001 1.68176,18.49935 -5.88616,12.6132 -20.18111,-0.84088 3.36352,-35.31695 -33.63519,0.84088 -28.58991,-26.90815 -17.658471,21.86287 -19.340233,-3.36352 -7.567917,-28.58991 -21.862872,7.56792 -1.681759,-22.70375 13.454075,-18.49936 39.521345,-32.7943 60.543342,-26.90815 13.45407,-15.13584 71.89521,67.06016 -1.68176,68.53169 z"
       id="path10"
       sodipodi:nodetypes="cccccccccccccccccccc" />
    <path
       style="fill:#68513a;fill-opacity:1;stroke-width:8"
       d="m 43.107901,214.35032 -10.405356,18.43234 0.891888,29.72959 12.783722,8.32428 19.026935,-4.16214 3.864847,-21.99989 12.783722,-7.1351 -8.324284,-20.21612 -17.243161,-7.1351 z"
       id="path11" />
    <path
       style="fill:#201912;fill-opacity:1;stroke-width:8"
       d="m 63.918611,250.32312 -8.62158,9.21617 -1.783775,8.32428 12.18913,-3.86484 z"
       id="path12" />
    <path
       style="fill:#201912;fill-opacity:1;stroke-width:8"
       d="m 140.62094,156.97222 -6.5405,-0.59459 -4.75674,6.8378 4.75674,4.45944 8.62158,-3.56755 z"
       id="path13" />
    <path
       style="fill:#573b1f;fill-opacity:1;stroke-width:8"
       d="m 87.107689,172.7289 60.053761,-24.08097 43.4052,-37.75657 -25.56744,-12.189133 -21.10801,0.594592 z"
       id="path14" />
    <path
       style="fill:#493521;fill-opacity:1;stroke-width:8"
       d="m 159.05329,118.91835 19.62153,-41.324129 31.81065,-17.24316 3.56755,23.189077 -24.08096,21.999892 -15.75668,16.05398 -9.51347,1.18918 z"
       id="path15" />
    <path
       style="fill:#c08245;fill-opacity:1;stroke-width:8"
       d="m 132.89125,133.18855 -8.47293,-15.1621 16.20262,-56.783502 1.18919,-28.540403 -2.37837,0.594592 -10.70265,23.189077 -3.56755,-12.783722 -4.16214,-0.891887 -6.83781,19.621527 -8.32428,-0.891888 -6.837807,-11.297243 -2.081071,1.189184 2.972959,30.324178 -6.243213,2.675663 -13.67561,-16.945865 -3.270255,4.162143 6.837805,46.972746 -9.810764,6.54051 -49.945705,-29.729587 -1.486479,-10.10806 -6.243213,-1.189183 0.297296,7.432397 16.945864,19.324233 27.945811,28.5404 z"
       id="path18"
       sodipodi:nodetypes="ccccccccccccccccccccccccc" />
    <path
       style="fill:#493521;fill-opacity:1;stroke-width:8"
       d="m 153.10737,98.404931 -41.91872,-31.216065 -4.16214,7.1351 15.16209,40.134944 4.45944,9.21617 z"
       id="path16" />
    <path
       style="fill:#644322;fill-opacity:1;stroke-width:8"
       d="M 119.51294,140.32365 85.621209,147.16145 39.54035,141.81013 12.783722,110.89136 2.6756628,79.0807 6.8378049,77.296925 21.999894,108.81029 l 25.270149,21.4053 9.810763,-2.67566 -6.837805,-27.648519 -4.756734,-13.67561 0.594592,-7.432397 2.972959,1.189184 18.432343,43.107902 19.324231,8.62158 34.189028,-2.67566 9.21617,3.27025 z"
       id="path17"
       sodipodi:nodetypes="cccccccccccccccccc" />
    <path
       style="fill:#7f562b;fill-opacity:1;stroke-width:8"
       d="m 179.864,149.24252 -2.37837,-4.16214 28.8377,-13.37831 21.4053,-30.02688 27.64852,-67.783461 -1.18918,-12.189131 -4.16215,1.48648 -1.78377,13.675609 -8.02699,17.837752 0.59459,-20.216119 -6.8378,0.297296 -5.64863,28.540403 -4.16214,-6.243213 -13.37831,33.594433 -8.32429,1.486479 -14.56749,-30.324178 -2.08107,1.486479 5.64862,32.999841 -21.9999,28.24311 -8.62158,3.86484 -15.75668,-25.27014 -2.97296,2.67566 8.32429,24.37826 -13.97291,0.59459 -19.91882,-9.81076 -38.351167,-52.026779 -4.459438,1.189183 16.351272,32.999846 24.378263,26.16203 42.21601,19.02694 0.2973,5.05403 15.16209,2.37836 z"
       id="path19" />
  </g>
</svg>
