<?xml version="1.0" encoding="UTF-8" standalone="no"?>
<!-- Created with Inkscape (http://www.inkscape.org/) -->

<svg
   version="1.1"
   id="svg1"
   width="480"
   height="343.04001"
   viewBox="0 0 480 343.04001"
   sodipodi:docname="mouse.svg"
   inkscape:version="1.4 (86a8ad7, 2024-10-11)"
   inkscape:export-filename="mouse.png"
   inkscape:export-xdpi="96"
   inkscape:export-ydpi="96"
   xmlns:inkscape="http://www.inkscape.org/namespaces/inkscape"
   xmlns:sodipodi="http://sodipodi.sourceforge.net/DTD/sodipodi-0.dtd"
   xmlns="http://www.w3.org/2000/svg"
   xmlns:svg="http://www.w3.org/2000/svg">
  <defs
     id="defs1" />
  <sodipodi:namedview
     id="namedview1"
     pagecolor="#ffffff"
     bordercolor="#000000"
     borderopacity="0.25"
     inkscape:showpageshadow="2"
     inkscape:pageopacity="0.0"
     inkscape:pagecheckerboard="0"
     inkscape:deskcolor="#d1d1d1"
     inkscape:zoom="2.2533815"
     inkscape:cx="238.30852"
     inkscape:cy="160.42557"
     inkscape:window-width="1920"
     inkscape:window-height="991"
     inkscape:window-x="-9"
     inkscape:window-y="-9"
     inkscape:window-maximized="1"
     inkscape:current-layer="g1" />
  <g
     inkscape:groupmode="layer"
     inkscape:label="Image"
     id="g1">
    <path
       style="fill:#d6759c;fill-opacity:1;stroke-width:8"
       d="m 280.91116,286.23649 -6.21289,33.72709 -23.07643,7.98799 -25.73909,-4.88155 -1.33133,-18.63865 19.52621,-18.63866 -4.88156,-23.07643 -126.47658,-24.40776 -73.223292,-2.21889 -30.620648,-18.63865 11.094438,-7.54422 119.819922,-3.994 80.76751,8.87555 6.21288,-62.57263 35.94598,-79.879947 15.53221,-11.538215 -4.43777,-16.863545 27.5142,-7.10044 10.20689,3.55022 20.41376,-11.538215 34.61465,7.10044 14.64465,-16.863545 13.75711,-3.55022 15.08843,10.65066 -10.65066,33.283312 17.7511,18.194878 21.30132,55.472187 -12.42577,32.39576 -1.33133,55.91596 -9.76311,42.60264 38.16487,15.53222 8.43177,16.41976 -9.7631,9.76311 -29.28932,-0.88756 -31.95198,-19.52621 -5.76911,-15.53221 -46.15286,-0.88755 z"
       id="path15" />
    <path
       style="fill:#33240f;stroke-width:8;fill-opacity:1"
       d="m 18.194878,218.78231 6.656662,-2.66267 43.933973,-3.99399 h 78.548617 l 105.61905,16.41976 15.97599,31.95198 -80.76751,-17.7511 -74.11084,-9.7631 -69.67307,-2.66267 z"
       id="path1" />
    <path
       style="fill:#33240f;fill-opacity:1;stroke-width:8"
       d="m 253.84073,271.14805 -3.10644,20.85755 -19.08243,15.97599 3.55022,12.42577 7.10044,-2.21889 3.55022,3.10644 3.55022,-3.10644 10.65066,1.77511 2.21888,-5.76911 6.21289,0.44378 7.54422,-39.4962 -11.982,-7.54422 z"
       id="path2" />
    <path
       style="fill:#33240f;fill-opacity:1;stroke-width:8"
       d="m 390.08042,263.60384 3.994,17.7511 15.08844,10.65066 18.63865,7.98799 3.10644,-2.66266 8.43178,3.99399 4.88155,-1.77511 7.10044,1.33134 1.77511,-4.88156 3.10644,0.88756 -0.88755,-8.43177 -4.88156,-6.21289 -37.72108,-10.65066 -1.77511,-11.09444 -14.20088,-9.7631 z"
       id="path3" />
    <path
       style="fill:#e0c295;fill-opacity:1;stroke-width:8"
       d="M 379.87354,45.709083 334.60824,35.5022 269.81672,75.442175 234.7583,160.64746 l -7.988,56.35974 23.96399,56.35974 10.20688,-0.88755 21.7451,7.54421 53.69708,-17.30732 54.58463,2.21889 7.10044,-8.87555 11.98199,4.88155 8.87555,-43.49019 2.21889,-63.90396 3.80308,-42.49249 -14.3972,-32.450949 z"
       id="path4"
       sodipodi:nodetypes="ccccccccccccccccc" />
    <path
       style="fill:#4c3f27;fill-opacity:1;stroke-width:8"
       d="m 343.92756,187.71788 39.05242,21.30132 -19.08243,-3.99399 23.96399,17.7511 -23.07643,-10.65066 11.98199,11.09443 -23.52021,-11.98199 15.53221,13.31333 -39.05242,-21.30132 0.44378,-14.20088 z"
       id="path5" />
    <path
       style="fill:#4c3f27;fill-opacity:1;stroke-width:8"
       d="m 403.39375,189.93677 4.43777,27.51421 -6.21288,7.10044 1.33133,-10.65066 -10.20688,13.31332 3.994,-16.41977 -6.65667,8.43178 3.10645,-16.41977 -8.87555,12.42577 4.88155,-13.7571 -7.988,-10.20689 7.10044,-9.31932 z"
       id="path6" />
    <path
       style="fill:#4c3f27;fill-opacity:1;stroke-width:8"
       d="m 329.72668,64.347738 -9.31932,-13.313325 -21.30132,-9.763105 -16.86355,7.987995 2.66267,13.313325 14.20088,23.07643 10.65066,14.644662 z"
       id="path7" />
    <path
       style="fill:#4c3f27;fill-opacity:1;stroke-width:8"
       d="m 372.7731,45.265305 13.7571,-22.188875 9.76311,-3.106442 7.10044,7.544217 -2.21889,15.088435 -7.98799,18.638655 z"
       id="path8" />
    <path
       style="fill:#998154;fill-opacity:1;stroke-width:8"
       d="m 351.91556,73.667065 30.62065,51.034415 -6.65667,24.40776 23.07643,18.63866 24.85154,-7.988 9.13551,-24.33162 -9.13551,-23.59635 -31.06442,-43.933972 -26.18287,-4.437775 z"
       id="path9"
       sodipodi:nodetypes="cccccccccc" />
    <path
       style="fill:#f09f7d;fill-opacity:1;stroke-width:8"
       d="m 405.61264,159.31612 -7.71667,-9.00684 8.47254,-7.53115 h 17.5727 l 1.56899,6.27596 z"
       id="path10" />
    <path
       style="fill:#f09f7d;fill-opacity:1;stroke-width:8"
       d="m 319.13265,75.625337 v 0 l -1.88279,-19.769279 -25.41765,-9.413942 -5.33456,7.531154 19.76928,31.693606 z"
       id="path11" />
    <path
       style="fill:#f09f7d;fill-opacity:1;stroke-width:8"
       d="m 390.36481,52.718078 -6.58976,-18.827885 11.29673,-11.296731 5.96217,6.903558 -2.82419,17.88649 z"
       id="path12" />
    <path
       style="fill:#34281a;fill-opacity:1;stroke-width:8"
       d="m 359.6126,100.10159 -5.64837,-10.669137 -9.72774,-1.255192 -5.33456,7.531154 9.10014,11.924325 z"
       id="path13" />
    <path
       style="fill:#34281a;fill-opacity:1;stroke-width:8"
       d="m 408.2513,76.252934 6.58976,4.079375 1.25519,6.589759 -3.13798,4.706972 -4.39317,-6.903558 z"
       id="path14" />
  </g>
</svg>
