<?xml version="1.0" encoding="UTF-8" standalone="no"?>
<!-- Created with Inkscape (http://www.inkscape.org/) -->

<svg
   version="1.1"
   id="svg1"
   width="1331"
   height="1920"
   viewBox="0 0 1331 1920"
   sodipodi:docname="snail.svg"
   inkscape:version="1.4 (86a8ad7, 2024-10-11)"
   inkscape:export-filename="snail.png"
   inkscape:export-xdpi="96"
   inkscape:export-ydpi="96"
   xmlns:inkscape="http://www.inkscape.org/namespaces/inkscape"
   xmlns:sodipodi="http://sodipodi.sourceforge.net/DTD/sodipodi-0.dtd"
   xmlns="http://www.w3.org/2000/svg"
   xmlns:svg="http://www.w3.org/2000/svg">
  <defs
     id="defs1" />
  <sodipodi:namedview
     id="namedview1"
     pagecolor="#ffffff"
     bordercolor="#000000"
     borderopacity="0.25"
     inkscape:showpageshadow="2"
     inkscape:pageopacity="0.0"
     inkscape:pagecheckerboard="0"
     inkscape:deskcolor="#d1d1d1"
     inkscape:zoom="0.56936827"
     inkscape:cx="593.64038"
     inkscape:cy="996.71869"
     inkscape:window-width="1920"
     inkscape:window-height="991"
     inkscape:window-x="-9"
     inkscape:window-y="-9"
     inkscape:window-maximized="1"
     inkscape:current-layer="g1" />
  <g
     inkscape:groupmode="layer"
     inkscape:label="Image"
     id="g1">
    <path
       style="fill:#d6759c;fill-opacity:1;stroke-width:8"
       d="m 33.370317,937.88155 21.07599,73.76595 68.496963,24.5887 159.82626,210.7599 165.09526,163.3389 370.58615,19.3197 36.88299,80.7912 61.47163,-14.0506 -10.53799,-68.497 52.68997,-40.3956 73.76596,21.076 14.0507,-61.4717 -47.42101,-28.1013 -21.07599,-57.959 68.497,-45.6646 228.3232,-49.1773 12.2943,-42.152 -26.345,-22.8323 -335.45947,36.883 -126.45594,-79.035 L 885.19158,767.5173 800.88762,532.16875 635.79236,430.30146 472.45344,433.81413 374.09882,477.72244 316.13985,456.64645 80.791295,574.32073 64.984302,619.98537 110.64895,872.89725 49.17731,888.70424 Z"
       id="path13" />
    <path
       style="fill:#d0bc93;stroke-width:8;fill-opacity:1"
       d="m 64.57956,911.56533 17.386805,67.06339 67.063385,29.80598 176.35188,230.9961 52.16041,27.3221 91.90169,104.3208 365.12289,24.8383 14.90298,-84.4502 -583.69987,-404.86413 z"
       id="path1" />
    <path
       style="fill:#998866;fill-opacity:1;stroke-width:8"
       d="m 260.80207,1000.9832 139.09444,216.0931 442.1216,188.771 67.06339,-14.9029 69.54722,-67.0634 -39.74127,-146.5459 -211.1986,-137.2133 z"
       id="path2"
       sodipodi:nodetypes="cccccccc" />
    <path
       style="fill:#c4baa6;fill-opacity:1;stroke-width:8"
       d="m 827.11514,1346.2354 44.70892,129.1592 12.41915,-2.4839 -12.41915,-124.1914 z"
       id="path3" />
    <path
       style="fill:#c4baa6;fill-opacity:1;stroke-width:8"
       d="m 936.40362,1338.784 84.45018,49.6765 4.9677,-22.3544 -69.54724,-59.6119 z"
       id="path4" />
    <path
       style="fill:#c4baa6;fill-opacity:1;stroke-width:8"
       d="m 911.56533,1159.9483 34.77361,79.4825 89.41786,-49.6766 228.5123,-44.7089 -5.269,-22.7807 z"
       id="path5"
       sodipodi:nodetypes="cccccc" />
    <path
       style="fill:#c4baa6;fill-opacity:1;stroke-width:8"
       d="m 812.21216,1229.4955 7.45149,27.3221 57.12807,4.9677 7.45149,-27.3222 -42.2251,-24.8383 z"
       id="path6" />
    <path
       style="fill:#a78440;fill-opacity:1;stroke-width:8"
       d="m 834.69702,1215.3821 v 16.2461 l 10.09891,3.5126 18.00241,-3.5126 0.87817,-10.0989 -10.09892,-11.4162 z"
       id="path7" />
    <path
       style="fill:#a78440;fill-opacity:1;stroke-width:8"
       d="m 1260.1686,1118.3447 -9.6599,12.2943 -1.7563,16.6852 14.0507,3.9518 7.9035,-17.5634 z"
       id="path8" />
    <path
       style="fill:#9e7b36;fill-opacity:1;stroke-width:8"
       d="m 255.83441,1014.6442 79.48254,74.5149 245.89909,22.3545 181.6423,-33.0021 L 824.63131,912.80724 853.19534,773.71281 781.1643,551.41009 624.68305,448.33118 474.41138,452.05692 386.23545,493.0401 265.76973,801.03493 Z"
       id="path9"
       sodipodi:nodetypes="cccccccccccc" />
    <path
       style="fill:#b89143;fill-opacity:1;stroke-width:8"
       d="m 265.76973,1018.37 8.6934,-166.41657 117.98189,-351.46184 -76.99871,-17.3868 -115.49806,63.33764 -68.3053,249.62484 22.35446,126.67529 48.43467,57.12807 z"
       id="path10" />
    <path
       style="fill:#c09e5b;fill-opacity:1;stroke-width:8"
       d="m 207.39974,548.92626 -37.25744,4.96766 -37.25744,31.04787 -33.53169,127.9172 14.90297,62.09573 24.8383,38.49936 z"
       id="path11" />
    <path
       style="fill:#c4a870;fill-opacity:1;stroke-width:8"
       d="m 140.33635,582.45796 -39.74127,17.3868 -11.177227,34.77361 6.209573,69.54722 9.935314,14.90297 z"
       id="path12" />
  </g>
</svg>
